<mxfile host="65bd71144e" modified="2023-01-04T07:48:40.651Z" agent="5.0 (X11; Linux x86_64) AppleWebKit/537.36 (KHTML, like Gecko) Code/1.74.2 Chrome/102.0.5005.167 Electron/19.1.8 Safari/537.36" etag="KBHAAoZN2h9j04OaMJw7" version="20.8.0" type="embed" pages="4">
    <diagram id="0kAloidB2RpWZAMSy-wC" name="green_hydrogen.png">
        <mxGraphModel dx="1057" dy="559" grid="1" gridSize="10" guides="1" tooltips="1" connect="1" arrows="1" fold="1" page="1" pageScale="1" pageWidth="1169" pageHeight="1654" math="0" shadow="0">
            <root>
                <mxCell id="0"/>
                <mxCell id="1" parent="0"/>
                <mxCell id="q5lapUZICfScD0Lj0rAi-6" value="" style="shape=image;html=1;verticalAlign=top;verticalLabelPosition=bottom;labelBackgroundColor=#ffffff;imageAspect=0;aspect=fixed;image=https://cdn0.iconfinder.com/data/icons/green-world/80/Green_World-02-128.png;fontColor=#007FFF;" parent="1" vertex="1">
                    <mxGeometry x="34" y="560" width="128" height="128" as="geometry"/>
                </mxCell>
                <mxCell id="q5lapUZICfScD0Lj0rAi-20" value="" style="group" parent="1" vertex="1" connectable="0">
                    <mxGeometry x="268" y="580" width="40" height="40" as="geometry"/>
                </mxCell>
                <mxCell id="q5lapUZICfScD0Lj0rAi-18" value="" style="ellipse;whiteSpace=wrap;html=1;aspect=fixed;fillColor=#FFB570;strokeColor=none;" parent="q5lapUZICfScD0Lj0rAi-20" vertex="1">
                    <mxGeometry width="40" height="40" as="geometry"/>
                </mxCell>
                <mxCell id="q5lapUZICfScD0Lj0rAi-19" value="" style="rounded=0;whiteSpace=wrap;html=1;fontColor=#007FFF;fillColor=#FFB570;strokeColor=none;" parent="q5lapUZICfScD0Lj0rAi-20" vertex="1">
                    <mxGeometry x="14.5" y="0.5" width="25" height="25.5" as="geometry"/>
                </mxCell>
                <mxCell id="q5lapUZICfScD0Lj0rAi-22" value="&lt;font style=&quot;font-size: 16px;&quot;&gt;1&lt;/font&gt;" style="text;html=1;align=center;verticalAlign=middle;resizable=0;points=[];autosize=1;strokeColor=none;fillColor=none;fontSize=13;fontColor=#000000;fontStyle=1" parent="q5lapUZICfScD0Lj0rAi-20" vertex="1">
                    <mxGeometry x="5" y="5" width="30" height="30" as="geometry"/>
                </mxCell>
                <mxCell id="q5lapUZICfScD0Lj0rAi-23" value="" style="endArrow=classic;html=1;rounded=0;fontSize=16;fontColor=#000000;fillColor=#ffe6cc;strokeColor=#FFCE9F;strokeWidth=6;" parent="1" edge="1">
                    <mxGeometry width="50" height="50" relative="1" as="geometry">
                        <mxPoint x="200" y="630" as="sourcePoint"/>
                        <mxPoint x="400" y="630" as="targetPoint"/>
                    </mxGeometry>
                </mxCell>
                <mxCell id="q5lapUZICfScD0Lj0rAi-24" value="Energy Production" style="text;html=1;strokeColor=none;fillColor=none;align=center;verticalAlign=middle;whiteSpace=wrap;rounded=0;fontSize=16;fontColor=#000000;" parent="1" vertex="1">
                    <mxGeometry x="208" y="640" width="160" height="30" as="geometry"/>
                </mxCell>
                <mxCell id="q5lapUZICfScD0Lj0rAi-27" value="" style="group" parent="1" vertex="1" connectable="0">
                    <mxGeometry x="970" y="590" width="80" height="80" as="geometry"/>
                </mxCell>
                <mxCell id="q5lapUZICfScD0Lj0rAi-25" value="" style="ellipse;whiteSpace=wrap;html=1;aspect=fixed;fontSize=16;fillColor=#fff2cc;strokeColor=#d6b656;" parent="q5lapUZICfScD0Lj0rAi-27" vertex="1">
                    <mxGeometry width="80" height="80" as="geometry"/>
                </mxCell>
                <mxCell id="q5lapUZICfScD0Lj0rAi-26" value="E" style="text;html=1;align=center;verticalAlign=middle;resizable=0;points=[];autosize=1;strokeColor=none;fillColor=none;fontSize=42;fontColor=#FFB570;" parent="q5lapUZICfScD0Lj0rAi-27" vertex="1">
                    <mxGeometry x="15" y="10" width="50" height="60" as="geometry"/>
                </mxCell>
                <mxCell id="q5lapUZICfScD0Lj0rAi-28" value="" style="endArrow=classic;html=1;rounded=0;fontSize=16;fontColor=#000000;fillColor=#ffe6cc;strokeColor=#FFCE9F;strokeWidth=6;" parent="1" edge="1">
                    <mxGeometry width="50" height="50" relative="1" as="geometry">
                        <mxPoint x="700" y="629.5" as="sourcePoint"/>
                        <mxPoint x="930" y="630" as="targetPoint"/>
                    </mxGeometry>
                </mxCell>
                <mxCell id="q5lapUZICfScD0Lj0rAi-29" value="" style="group" parent="1" vertex="1" connectable="0">
                    <mxGeometry x="790" y="580" width="40" height="40" as="geometry"/>
                </mxCell>
                <mxCell id="q5lapUZICfScD0Lj0rAi-30" value="" style="ellipse;whiteSpace=wrap;html=1;aspect=fixed;fillColor=#FFB570;strokeColor=none;" parent="q5lapUZICfScD0Lj0rAi-29" vertex="1">
                    <mxGeometry width="40" height="40" as="geometry"/>
                </mxCell>
                <mxCell id="q5lapUZICfScD0Lj0rAi-31" value="" style="rounded=0;whiteSpace=wrap;html=1;fontColor=#007FFF;fillColor=#FFB570;strokeColor=none;" parent="q5lapUZICfScD0Lj0rAi-29" vertex="1">
                    <mxGeometry x="14.5" y="0.5" width="25" height="25.5" as="geometry"/>
                </mxCell>
                <mxCell id="q5lapUZICfScD0Lj0rAi-32" value="&lt;font style=&quot;font-size: 16px;&quot;&gt;2&lt;/font&gt;" style="text;html=1;align=center;verticalAlign=middle;resizable=0;points=[];autosize=1;strokeColor=none;fillColor=none;fontSize=13;fontColor=#000000;fontStyle=1" parent="q5lapUZICfScD0Lj0rAi-29" vertex="1">
                    <mxGeometry x="5" y="5" width="30" height="30" as="geometry"/>
                </mxCell>
                <mxCell id="q5lapUZICfScD0Lj0rAi-33" value="Event &lt;br&gt;Generation" style="text;html=1;strokeColor=none;fillColor=none;align=center;verticalAlign=middle;whiteSpace=wrap;rounded=0;fontSize=16;fontColor=#000000;" parent="1" vertex="1">
                    <mxGeometry x="730" y="648" width="160" height="30" as="geometry"/>
                </mxCell>
                <mxCell id="q5lapUZICfScD0Lj0rAi-36" value="" style="endArrow=classic;html=1;rounded=0;fontSize=16;fontColor=#000000;fillColor=#ffe6cc;strokeColor=#FFCE9F;strokeWidth=6;" parent="1" edge="1">
                    <mxGeometry width="50" height="50" relative="1" as="geometry">
                        <mxPoint x="1010" y="570" as="sourcePoint"/>
                        <mxPoint x="1010" y="470" as="targetPoint"/>
                    </mxGeometry>
                </mxCell>
                <mxCell id="q5lapUZICfScD0Lj0rAi-37" value="" style="endArrow=classic;html=1;rounded=0;fontSize=16;fontColor=#000000;fillColor=#ffe6cc;strokeColor=#FFCE9F;strokeWidth=6;" parent="1" edge="1">
                    <mxGeometry width="50" height="50" relative="1" as="geometry">
                        <mxPoint x="1009.5" y="690" as="sourcePoint"/>
                        <mxPoint x="1010" y="750" as="targetPoint"/>
                        <Array as="points">
                            <mxPoint x="1009.5" y="730"/>
                        </Array>
                    </mxGeometry>
                </mxCell>
                <mxCell id="q5lapUZICfScD0Lj0rAi-44" value="" style="group" parent="1" vertex="1" connectable="0">
                    <mxGeometry x="950" y="740" width="170" height="150" as="geometry"/>
                </mxCell>
                <mxCell id="q5lapUZICfScD0Lj0rAi-35" value="" style="shape=image;html=1;verticalAlign=top;verticalLabelPosition=bottom;labelBackgroundColor=#ffffff;imageAspect=0;aspect=fixed;image=https://cdn1.iconfinder.com/data/icons/building-vol-3-3/512/7-128.png;fontSize=42;fontColor=#FFB570;fillColor=default;" parent="q5lapUZICfScD0Lj0rAi-44" vertex="1">
                    <mxGeometry y="-20" width="128" height="128" as="geometry"/>
                </mxCell>
                <mxCell id="q5lapUZICfScD0Lj0rAi-58" value="Other nodes" style="text;html=1;strokeColor=#d79b00;fillColor=#ffe6cc;align=center;verticalAlign=middle;whiteSpace=wrap;rounded=1;fontSize=16;perimeterSpacing=0;fontStyle=0" parent="q5lapUZICfScD0Lj0rAi-44" vertex="1">
                    <mxGeometry x="-16" y="100" width="160" height="30" as="geometry"/>
                </mxCell>
                <mxCell id="q5lapUZICfScD0Lj0rAi-46" value="" style="group" parent="1" vertex="1" connectable="0">
                    <mxGeometry x="1020" y="520" width="40" height="40" as="geometry"/>
                </mxCell>
                <mxCell id="q5lapUZICfScD0Lj0rAi-47" value="" style="ellipse;whiteSpace=wrap;html=1;aspect=fixed;fillColor=#FFB570;strokeColor=none;" parent="q5lapUZICfScD0Lj0rAi-46" vertex="1">
                    <mxGeometry width="40" height="40" as="geometry"/>
                </mxCell>
                <mxCell id="q5lapUZICfScD0Lj0rAi-48" value="" style="rounded=0;whiteSpace=wrap;html=1;fontColor=#007FFF;fillColor=#FFB570;strokeColor=none;" parent="q5lapUZICfScD0Lj0rAi-46" vertex="1">
                    <mxGeometry x="14.5" y="0.5" width="25" height="25.5" as="geometry"/>
                </mxCell>
                <mxCell id="q5lapUZICfScD0Lj0rAi-49" value="&lt;font style=&quot;font-size: 16px;&quot;&gt;3&lt;/font&gt;" style="text;html=1;align=center;verticalAlign=middle;resizable=0;points=[];autosize=1;strokeColor=none;fillColor=none;fontSize=13;fontColor=#000000;fontStyle=1" parent="q5lapUZICfScD0Lj0rAi-46" vertex="1">
                    <mxGeometry x="5" y="5" width="30" height="30" as="geometry"/>
                </mxCell>
                <mxCell id="q5lapUZICfScD0Lj0rAi-50" value="" style="group" parent="1" vertex="1" connectable="0">
                    <mxGeometry x="1030" y="690" width="40" height="40" as="geometry"/>
                </mxCell>
                <mxCell id="q5lapUZICfScD0Lj0rAi-51" value="" style="ellipse;whiteSpace=wrap;html=1;aspect=fixed;fillColor=#FFB570;strokeColor=none;" parent="q5lapUZICfScD0Lj0rAi-50" vertex="1">
                    <mxGeometry width="40" height="40" as="geometry"/>
                </mxCell>
                <mxCell id="q5lapUZICfScD0Lj0rAi-52" value="" style="rounded=0;whiteSpace=wrap;html=1;fontColor=#007FFF;fillColor=#FFB570;strokeColor=none;" parent="q5lapUZICfScD0Lj0rAi-50" vertex="1">
                    <mxGeometry x="14.5" y="0.5" width="25" height="25.5" as="geometry"/>
                </mxCell>
                <mxCell id="q5lapUZICfScD0Lj0rAi-53" value="&lt;font style=&quot;font-size: 16px;&quot;&gt;3&lt;/font&gt;" style="text;html=1;align=center;verticalAlign=middle;resizable=0;points=[];autosize=1;strokeColor=none;fillColor=none;fontSize=13;fontColor=#000000;fontStyle=1" parent="q5lapUZICfScD0Lj0rAi-50" vertex="1">
                    <mxGeometry x="5" y="5" width="30" height="30" as="geometry"/>
                </mxCell>
                <mxCell id="q5lapUZICfScD0Lj0rAi-54" value="Solar Plant" style="text;html=1;strokeColor=#d79b00;fillColor=#ffe6cc;align=center;verticalAlign=middle;whiteSpace=wrap;rounded=1;fontSize=16;perimeterSpacing=0;fontStyle=0" parent="1" vertex="1">
                    <mxGeometry x="24" y="680" width="160" height="30" as="geometry"/>
                </mxCell>
                <mxCell id="q5lapUZICfScD0Lj0rAi-57" value="Certifying entity" style="text;html=1;strokeColor=#d79b00;fillColor=#ffe6cc;align=center;verticalAlign=middle;whiteSpace=wrap;rounded=1;fontSize=16;perimeterSpacing=0;fontStyle=0" parent="1" vertex="1">
                    <mxGeometry x="930" y="320" width="160" height="30" as="geometry"/>
                </mxCell>
                <mxCell id="q5lapUZICfScD0Lj0rAi-59" value="" style="endArrow=classic;html=1;rounded=0;fontSize=16;fontColor=#000000;fillColor=#ffe6cc;strokeColor=#FFCE9F;strokeWidth=6;" parent="1" edge="1">
                    <mxGeometry width="50" height="50" relative="1" as="geometry">
                        <mxPoint x="940" y="420" as="sourcePoint"/>
                        <mxPoint x="600" y="420" as="targetPoint"/>
                    </mxGeometry>
                </mxCell>
                <mxCell id="q5lapUZICfScD0Lj0rAi-62" value="" style="outlineConnect=0;dashed=0;verticalLabelPosition=bottom;verticalAlign=top;align=center;html=1;shape=mxgraph.aws3.certificate_manager_2;fillColor=#759C3E;gradientColor=none;rounded=1;fontSize=42;fontColor=#FFB570;" parent="1" vertex="1">
                    <mxGeometry x="511" y="390" width="73.5" height="63" as="geometry"/>
                </mxCell>
                <mxCell id="q5lapUZICfScD0Lj0rAi-63" value="" style="endArrow=classic;html=1;rounded=0;fontSize=16;fontColor=#000000;fillColor=#ffe6cc;strokeColor=#FFCE9F;strokeWidth=6;" parent="1" edge="1">
                    <mxGeometry width="50" height="50" relative="1" as="geometry">
                        <mxPoint x="547.25" y="470" as="sourcePoint"/>
                        <mxPoint x="547.5" y="550" as="targetPoint"/>
                        <Array as="points">
                            <mxPoint x="547.5" y="490"/>
                        </Array>
                    </mxGeometry>
                </mxCell>
                <mxCell id="q5lapUZICfScD0Lj0rAi-64" value="Green Certificate emission" style="text;html=1;strokeColor=none;fillColor=none;align=center;verticalAlign=middle;whiteSpace=wrap;rounded=0;fontSize=16;fontColor=#000000;" parent="1" vertex="1">
                    <mxGeometry x="710" y="440" width="160" height="30" as="geometry"/>
                </mxCell>
                <mxCell id="q5lapUZICfScD0Lj0rAi-65" value="" style="group" parent="1" vertex="1" connectable="0">
                    <mxGeometry x="760" y="370" width="40" height="40" as="geometry"/>
                </mxCell>
                <mxCell id="q5lapUZICfScD0Lj0rAi-66" value="" style="ellipse;whiteSpace=wrap;html=1;aspect=fixed;fillColor=#FFB570;strokeColor=none;" parent="q5lapUZICfScD0Lj0rAi-65" vertex="1">
                    <mxGeometry width="40" height="40" as="geometry"/>
                </mxCell>
                <mxCell id="q5lapUZICfScD0Lj0rAi-67" value="" style="rounded=0;whiteSpace=wrap;html=1;fontColor=#007FFF;fillColor=#FFB570;strokeColor=none;" parent="q5lapUZICfScD0Lj0rAi-65" vertex="1">
                    <mxGeometry x="14.5" y="0.5" width="25" height="25.5" as="geometry"/>
                </mxCell>
                <mxCell id="q5lapUZICfScD0Lj0rAi-68" value="&lt;font style=&quot;font-size: 16px;&quot;&gt;4&lt;/font&gt;" style="text;html=1;align=center;verticalAlign=middle;resizable=0;points=[];autosize=1;strokeColor=none;fillColor=none;fontSize=13;fontColor=#000000;fontStyle=1" parent="q5lapUZICfScD0Lj0rAi-65" vertex="1">
                    <mxGeometry x="5" y="5" width="30" height="30" as="geometry"/>
                </mxCell>
                <mxCell id="q5lapUZICfScD0Lj0rAi-34" value="" style="shape=image;html=1;verticalAlign=top;verticalLabelPosition=bottom;labelBackgroundColor=#ffffff;imageAspect=0;aspect=fixed;image=https://cdn2.iconfinder.com/data/icons/maki/100/town-hall-128.png;fontSize=42;fontColor=#FFB570;fillColor=default;" parent="1" vertex="1">
                    <mxGeometry x="950" y="340" width="128" height="128" as="geometry"/>
                </mxCell>
                <mxCell id="q5lapUZICfScD0Lj0rAi-5" value="" style="shape=image;html=1;verticalAlign=top;verticalLabelPosition=bottom;labelBackgroundColor=#ffffff;imageAspect=0;aspect=fixed;image=https://cdn1.iconfinder.com/data/icons/science-technology-outline-24-px/24/factory_company_building_manufacturer_powerplant-128.png;fontColor=#007FFF;" parent="1" vertex="1">
                    <mxGeometry x="430" y="551" width="128" height="127" as="geometry"/>
                </mxCell>
                <mxCell id="q5lapUZICfScD0Lj0rAi-7" value="" style="shape=image;html=1;verticalAlign=top;verticalLabelPosition=bottom;labelBackgroundColor=#ffffff;imageAspect=0;aspect=fixed;image=https://cdn1.iconfinder.com/data/icons/iconoir-vol-2/24/hydrogen-128.png;fontColor=#007FFF;" parent="1" vertex="1">
                    <mxGeometry x="530" y="550" width="130" height="130" as="geometry"/>
                </mxCell>
                <mxCell id="q5lapUZICfScD0Lj0rAi-56" value="Hydrogen Factory" style="text;html=1;strokeColor=#d79b00;fillColor=#ffe6cc;align=center;verticalAlign=middle;whiteSpace=wrap;rounded=1;fontSize=16;perimeterSpacing=0;fontStyle=0" parent="1" vertex="1">
                    <mxGeometry x="460" y="680" width="160" height="30" as="geometry"/>
                </mxCell>
            </root>
        </mxGraphModel>
    </diagram>
    <diagram name="water-cycle.png" id="T4ZvYynhpBO2-yakRhzl">
        &#xa;
        <mxGraphModel dx="873" dy="616" grid="1" gridSize="10" guides="1" tooltips="1" connect="1" arrows="1" fold="1" page="1" pageScale="1" pageWidth="827" pageHeight="1169" background="#ffffff" math="0" shadow="0">
            &#xa;
            <root>
                &#xa;
                <mxCell id="oFbwnjibTauzfTqGPlC0-0"/>
                &#xa;
                <mxCell id="oFbwnjibTauzfTqGPlC0-1" parent="oFbwnjibTauzfTqGPlC0-0"/>
                &#xa;
                <mxCell id="oFbwnjibTauzfTqGPlC0-2" value="&lt;font color=&quot;#000000&quot;&gt;Reservoir&lt;/font&gt;" style="text;html=1;strokeColor=#d79b00;fillColor=#ffe6cc;align=center;verticalAlign=middle;whiteSpace=wrap;rounded=1;fontSize=16;perimeterSpacing=0;fontStyle=0" parent="oFbwnjibTauzfTqGPlC0-1" vertex="1">
                    &#xa;
                    <mxGeometry x="202" y="313" width="160" height="30" as="geometry"/>
                    &#xa;
                </mxCell>
                &#xa;
                <mxCell id="oFbwnjibTauzfTqGPlC0-3" value="" style="endArrow=classic;html=1;rounded=0;fontSize=16;fontColor=#000000;fillColor=#ffe6cc;strokeColor=#FFCE9F;strokeWidth=6;entryX=0;entryY=0.5;entryDx=0;entryDy=0;exitX=1;exitY=0.5;exitDx=0;exitDy=0;" parent="oFbwnjibTauzfTqGPlC0-1" edge="1">
                    &#xa;
                    <mxGeometry width="50" height="50" relative="1" as="geometry">
                        &#xa;
                        <mxPoint x="335" y="386.25" as="sourcePoint"/>
                        &#xa;
                        <mxPoint x="506" y="386.5" as="targetPoint"/>
                        &#xa;
                    </mxGeometry>
                    &#xa;
                </mxCell>
                &#xa;
                <mxCell id="oFbwnjibTauzfTqGPlC0-5" value="&lt;font color=&quot;#000000&quot;&gt;Treatment Plant&lt;/font&gt;" style="text;html=1;strokeColor=#d79b00;fillColor=#ffe6cc;align=center;verticalAlign=middle;whiteSpace=wrap;rounded=1;fontSize=16;perimeterSpacing=0;fontStyle=0" parent="oFbwnjibTauzfTqGPlC0-1" vertex="1">
                    &#xa;
                    <mxGeometry x="470" y="313" width="160" height="30" as="geometry"/>
                    &#xa;
                </mxCell>
                &#xa;
                <mxCell id="oFbwnjibTauzfTqGPlC0-8" value="&lt;span style=&quot;font-family: &amp;#34;helvetica&amp;#34; ; font-size: 16px ; font-style: normal ; font-weight: 400 ; letter-spacing: normal ; text-indent: 0px ; text-transform: none ; word-spacing: 0px ; display: inline ; float: none&quot;&gt;Distribution&lt;/span&gt;" style="text;whiteSpace=wrap;html=1;fontSize=17;fontFamily=Verdana;align=center;labelBackgroundColor=none;fillColor=#fff2cc;strokeColor=#d6b656;fontColor=#000000;" parent="oFbwnjibTauzfTqGPlC0-1" vertex="1">
                    &#xa;
                    <mxGeometry x="860" y="401" width="80" height="30" as="geometry"/>
                    &#xa;
                </mxCell>
                &#xa;
                <mxCell id="oFbwnjibTauzfTqGPlC0-10" value="&lt;span style=&quot;font-family: &amp;#34;helvetica&amp;#34; ; font-size: 16px ; font-style: normal ; font-weight: 400 ; letter-spacing: normal ; text-indent: 0px ; text-transform: none ; word-spacing: 0px ; display: inline ; float: none&quot;&gt;Treatment&lt;br&gt;&lt;/span&gt;" style="text;whiteSpace=wrap;html=1;fontSize=17;fontFamily=Verdana;align=center;labelBackgroundColor=none;fillColor=#fff2cc;strokeColor=#d6b656;fontColor=#000000;" parent="oFbwnjibTauzfTqGPlC0-1" vertex="1">
                    &#xa;
                    <mxGeometry x="370" y="401" width="90" height="30" as="geometry"/>
                    &#xa;
                </mxCell>
                &#xa;
                <mxCell id="oFbwnjibTauzfTqGPlC0-11" value="" style="group" parent="oFbwnjibTauzfTqGPlC0-1" vertex="1" connectable="0">
                    &#xa;
                    <mxGeometry x="394" y="332.5" width="40" height="40" as="geometry"/>
                    &#xa;
                </mxCell>
                &#xa;
                <mxCell id="oFbwnjibTauzfTqGPlC0-12" value="" style="ellipse;whiteSpace=wrap;html=1;aspect=fixed;fillColor=#FFB570;strokeColor=none;" parent="oFbwnjibTauzfTqGPlC0-11" vertex="1">
                    &#xa;
                    <mxGeometry width="40" height="40" as="geometry"/>
                    &#xa;
                </mxCell>
                &#xa;
                <mxCell id="oFbwnjibTauzfTqGPlC0-13" value="" style="rounded=0;whiteSpace=wrap;html=1;fontColor=#007FFF;fillColor=#FFB570;strokeColor=none;" parent="oFbwnjibTauzfTqGPlC0-11" vertex="1">
                    &#xa;
                    <mxGeometry x="14.5" y="0.5" width="25" height="25.5" as="geometry"/>
                    &#xa;
                </mxCell>
                &#xa;
                <mxCell id="oFbwnjibTauzfTqGPlC0-14" value="&lt;font style=&quot;font-size: 16px;&quot;&gt;1&lt;/font&gt;" style="text;html=1;align=center;verticalAlign=middle;resizable=0;points=[];autosize=1;strokeColor=none;fillColor=none;fontSize=13;fontColor=#000000;fontStyle=1" parent="oFbwnjibTauzfTqGPlC0-11" vertex="1">
                    &#xa;
                    <mxGeometry x="5" y="5" width="30" height="30" as="geometry"/>
                    &#xa;
                </mxCell>
                &#xa;
                <mxCell id="oFbwnjibTauzfTqGPlC0-15" value="" style="endArrow=classic;html=1;rounded=0;fontSize=16;fontColor=#000000;fillColor=#ffe6cc;strokeColor=#FFCE9F;strokeWidth=6;entryX=0;entryY=0.5;entryDx=0;entryDy=0;exitX=1;exitY=0.5;exitDx=0;exitDy=0;" parent="oFbwnjibTauzfTqGPlC0-1" edge="1">
                    &#xa;
                    <mxGeometry width="50" height="50" relative="1" as="geometry">
                        &#xa;
                        <mxPoint x="593" y="386.5" as="sourcePoint"/>
                        &#xa;
                        <mxPoint x="760" y="385.9999999999999" as="targetPoint"/>
                        &#xa;
                    </mxGeometry>
                    &#xa;
                </mxCell>
                &#xa;
                <mxCell id="oFbwnjibTauzfTqGPlC0-18" value="" style="group" parent="oFbwnjibTauzfTqGPlC0-1" vertex="1" connectable="0">
                    &#xa;
                    <mxGeometry x="660" y="332.5" width="40" height="40" as="geometry"/>
                    &#xa;
                </mxCell>
                &#xa;
                <mxCell id="oFbwnjibTauzfTqGPlC0-19" value="" style="ellipse;whiteSpace=wrap;html=1;aspect=fixed;fillColor=#FFB570;strokeColor=none;" parent="oFbwnjibTauzfTqGPlC0-18" vertex="1">
                    &#xa;
                    <mxGeometry width="40" height="40" as="geometry"/>
                    &#xa;
                </mxCell>
                &#xa;
                <mxCell id="oFbwnjibTauzfTqGPlC0-20" value="" style="rounded=0;whiteSpace=wrap;html=1;fontColor=#007FFF;fillColor=#FFB570;strokeColor=none;" parent="oFbwnjibTauzfTqGPlC0-18" vertex="1">
                    &#xa;
                    <mxGeometry x="14.5" y="0.5" width="25" height="25.5" as="geometry"/>
                    &#xa;
                </mxCell>
                &#xa;
                <mxCell id="oFbwnjibTauzfTqGPlC0-21" value="&lt;font style=&quot;font-size: 16px&quot;&gt;2&lt;/font&gt;" style="text;html=1;align=center;verticalAlign=middle;resizable=0;points=[];autosize=1;strokeColor=none;fillColor=none;fontSize=13;fontColor=#000000;fontStyle=1" parent="oFbwnjibTauzfTqGPlC0-18" vertex="1">
                    &#xa;
                    <mxGeometry x="10" y="10" width="20" height="20" as="geometry"/>
                    &#xa;
                </mxCell>
                &#xa;
                <mxCell id="oFbwnjibTauzfTqGPlC0-46" value="" style="endArrow=classic;html=1;rounded=0;fontSize=16;fontColor=#000000;fillColor=#ffe6cc;strokeColor=#FFCE9F;strokeWidth=6;exitX=1;exitY=0.5;exitDx=0;exitDy=0;entryX=-0.071;entryY=0.386;entryDx=0;entryDy=0;entryPerimeter=0;" parent="oFbwnjibTauzfTqGPlC0-1" edge="1">
                    &#xa;
                    <mxGeometry width="50" height="50" relative="1" as="geometry">
                        &#xa;
                        <mxPoint x="848" y="386" as="sourcePoint"/>
                        &#xa;
                        <mxPoint x="955.0300000000002" y="387.0200000000001" as="targetPoint"/>
                        &#xa;
                    </mxGeometry>
                    &#xa;
                </mxCell>
                &#xa;
                <mxCell id="oFbwnjibTauzfTqGPlC0-55" value="" style="group" parent="oFbwnjibTauzfTqGPlC0-1" vertex="1" connectable="0">
                    &#xa;
                    <mxGeometry x="880" y="332.5" width="40" height="40" as="geometry"/>
                    &#xa;
                </mxCell>
                &#xa;
                <mxCell id="oFbwnjibTauzfTqGPlC0-56" value="" style="ellipse;whiteSpace=wrap;html=1;aspect=fixed;fillColor=#FFB570;strokeColor=none;" parent="oFbwnjibTauzfTqGPlC0-55" vertex="1">
                    &#xa;
                    <mxGeometry width="40" height="40" as="geometry"/>
                    &#xa;
                </mxCell>
                &#xa;
                <mxCell id="oFbwnjibTauzfTqGPlC0-57" value="" style="rounded=0;whiteSpace=wrap;html=1;fontColor=#007FFF;fillColor=#FFB570;strokeColor=none;" parent="oFbwnjibTauzfTqGPlC0-55" vertex="1">
                    &#xa;
                    <mxGeometry x="14.5" y="0.5" width="25" height="25.5" as="geometry"/>
                    &#xa;
                </mxCell>
                &#xa;
                <mxCell id="oFbwnjibTauzfTqGPlC0-58" value="&lt;font style=&quot;font-size: 16px&quot;&gt;3&lt;/font&gt;" style="text;html=1;align=center;verticalAlign=middle;resizable=0;points=[];autosize=1;strokeColor=none;fillColor=none;fontSize=13;fontColor=#000000;fontStyle=1" parent="oFbwnjibTauzfTqGPlC0-55" vertex="1">
                    &#xa;
                    <mxGeometry x="10" y="10" width="20" height="20" as="geometry"/>
                    &#xa;
                </mxCell>
                &#xa;
                <mxCell id="oFbwnjibTauzfTqGPlC0-59" value="&lt;span style=&quot;font-family: helvetica; font-size: 16px; font-style: normal; font-weight: 400; letter-spacing: normal; text-indent: 0px; text-transform: none; word-spacing: 0px; display: inline; float: none;&quot;&gt;Storage&lt;/span&gt;" style="text;whiteSpace=wrap;html=1;fontSize=17;fontFamily=Verdana;align=center;labelBackgroundColor=none;fillColor=#fff2cc;strokeColor=#d6b656;fontColor=#000000;" parent="oFbwnjibTauzfTqGPlC0-1" vertex="1">
                    &#xa;
                    <mxGeometry x="640" y="400" width="80" height="30" as="geometry"/>
                    &#xa;
                </mxCell>
                &#xa;
                <mxCell id="oFbwnjibTauzfTqGPlC0-62" value="" style="endArrow=classic;html=1;rounded=0;fontSize=16;fontColor=#000000;fillColor=#ffe6cc;strokeColor=#FFCE9F;strokeWidth=6;entryX=0.991;entryY=0.447;entryDx=0;entryDy=0;entryPerimeter=0;" parent="oFbwnjibTauzfTqGPlC0-1" target="7KscYYDJ5lPupZ8GLUKU-38" edge="1">
                    &#xa;
                    <mxGeometry width="50" height="50" relative="1" as="geometry">
                        &#xa;
                        <mxPoint x="950" y="545" as="sourcePoint"/>
                        &#xa;
                        <mxPoint x="848" y="545" as="targetPoint"/>
                        &#xa;
                    </mxGeometry>
                    &#xa;
                </mxCell>
                &#xa;
                <mxCell id="oFbwnjibTauzfTqGPlC0-74" value="" style="endArrow=classic;html=1;rounded=0;fontSize=16;fontColor=#000000;fillColor=#ffe6cc;strokeColor=#FFCE9F;strokeWidth=6;entryX=1;entryY=0.75;entryDx=0;entryDy=0;" parent="oFbwnjibTauzfTqGPlC0-1" target="7KscYYDJ5lPupZ8GLUKU-38" edge="1">
                    &#xa;
                    <mxGeometry width="50" height="50" relative="1" as="geometry">
                        &#xa;
                        <mxPoint x="930" y="620" as="sourcePoint"/>
                        &#xa;
                        <mxPoint x="850" y="560.04" as="targetPoint"/>
                        &#xa;
                    </mxGeometry>
                    &#xa;
                </mxCell>
                &#xa;
                <mxCell id="oFbwnjibTauzfTqGPlC0-75" value="&lt;span style=&quot;font-family: &amp;#34;helvetica&amp;#34; ; font-size: 16px ; font-style: normal ; font-weight: 400 ; letter-spacing: normal ; text-indent: 0px ; text-transform: none ; word-spacing: 0px ; display: inline ; float: none&quot;&gt;Consumption&lt;/span&gt;" style="text;whiteSpace=wrap;html=1;fontSize=17;fontFamily=Verdana;align=center;labelBackgroundColor=none;fillColor=#fff2cc;strokeColor=#d6b656;fontColor=#000000;" parent="oFbwnjibTauzfTqGPlC0-1" vertex="1">
                    &#xa;
                    <mxGeometry x="1025.5" y="460" width="110" height="30" as="geometry"/>
                    &#xa;
                </mxCell>
                &#xa;
                <mxCell id="oFbwnjibTauzfTqGPlC0-76" value="" style="group" parent="oFbwnjibTauzfTqGPlC0-1" vertex="1" connectable="0">
                    &#xa;
                    <mxGeometry x="868" y="490" width="40" height="40" as="geometry"/>
                    &#xa;
                </mxCell>
                &#xa;
                <mxCell id="oFbwnjibTauzfTqGPlC0-77" value="" style="ellipse;whiteSpace=wrap;html=1;aspect=fixed;fillColor=#FFB570;strokeColor=none;" parent="oFbwnjibTauzfTqGPlC0-76" vertex="1">
                    &#xa;
                    <mxGeometry width="40" height="40" as="geometry"/>
                    &#xa;
                </mxCell>
                &#xa;
                <mxCell id="oFbwnjibTauzfTqGPlC0-78" value="" style="rounded=0;whiteSpace=wrap;html=1;fontColor=#007FFF;fillColor=#FFB570;strokeColor=none;" parent="oFbwnjibTauzfTqGPlC0-76" vertex="1">
                    &#xa;
                    <mxGeometry x="14.5" y="0.5" width="25" height="25.5" as="geometry"/>
                    &#xa;
                </mxCell>
                &#xa;
                <mxCell id="oFbwnjibTauzfTqGPlC0-79" value="&lt;font style=&quot;font-size: 16px&quot;&gt;4&lt;/font&gt;" style="text;html=1;align=center;verticalAlign=middle;resizable=0;points=[];autosize=1;strokeColor=none;fillColor=none;fontSize=13;fontColor=#000000;fontStyle=1" parent="oFbwnjibTauzfTqGPlC0-76" vertex="1">
                    &#xa;
                    <mxGeometry x="10" y="10" width="20" height="20" as="geometry"/>
                    &#xa;
                </mxCell>
                &#xa;
                <mxCell id="oFbwnjibTauzfTqGPlC0-80" value="&lt;span style=&quot;font-family: &amp;#34;helvetica&amp;#34; ; font-size: 16px ; font-style: normal ; font-weight: 400 ; letter-spacing: normal ; text-indent: 0px ; text-transform: none ; word-spacing: 0px ; display: inline ; float: none&quot;&gt;Depuration&lt;/span&gt;" style="text;whiteSpace=wrap;html=1;fontSize=17;fontFamily=Verdana;align=center;labelBackgroundColor=none;fillColor=#fff2cc;strokeColor=#d6b656;fontColor=#000000;" parent="oFbwnjibTauzfTqGPlC0-1" vertex="1">
                    &#xa;
                    <mxGeometry x="848" y="640" width="80" height="30" as="geometry"/>
                    &#xa;
                </mxCell>
                &#xa;
                <mxCell id="oFbwnjibTauzfTqGPlC0-81" value="&lt;font color=&quot;#000000&quot;&gt;Sewerage&lt;/font&gt;" style="text;html=1;strokeColor=#d79b00;fillColor=#ffe6cc;align=center;verticalAlign=middle;whiteSpace=wrap;rounded=1;fontSize=16;perimeterSpacing=0;fontStyle=0" parent="oFbwnjibTauzfTqGPlC0-1" vertex="1">
                    &#xa;
                    <mxGeometry x="965" y="670" width="110" height="30" as="geometry"/>
                    &#xa;
                </mxCell>
                &#xa;
                <mxCell id="oFbwnjibTauzfTqGPlC0-84" value="" style="endArrow=classic;html=1;rounded=0;fontSize=16;fontColor=#000000;fillColor=#ffe6cc;strokeColor=#FFCE9F;strokeWidth=6;" parent="oFbwnjibTauzfTqGPlC0-1" edge="1">
                    &#xa;
                    <mxGeometry width="50" height="50" relative="1" as="geometry">
                        &#xa;
                        <mxPoint x="760" y="544.5" as="sourcePoint"/>
                        &#xa;
                        <mxPoint x="600" y="545" as="targetPoint"/>
                        &#xa;
                    </mxGeometry>
                    &#xa;
                </mxCell>
                &#xa;
                <mxCell id="oFbwnjibTauzfTqGPlC0-85" value="" style="endArrow=classic;html=1;rounded=0;fontSize=16;fontColor=#000000;fillColor=#ffe6cc;strokeColor=#FFCE9F;strokeWidth=6;entryX=0.75;entryY=1;entryDx=0;entryDy=0;" parent="oFbwnjibTauzfTqGPlC0-1" edge="1">
                    &#xa;
                    <mxGeometry width="50" height="50" relative="1" as="geometry">
                        &#xa;
                        <mxPoint x="500" y="550" as="sourcePoint"/>
                        &#xa;
                        <mxPoint x="308.125" y="440" as="targetPoint"/>
                        &#xa;
                    </mxGeometry>
                    &#xa;
                </mxCell>
                &#xa;
                <mxCell id="oFbwnjibTauzfTqGPlC0-86" value="" style="group" parent="oFbwnjibTauzfTqGPlC0-1" vertex="1" connectable="0">
                    &#xa;
                    <mxGeometry x="660" y="490" width="40" height="40" as="geometry"/>
                    &#xa;
                </mxCell>
                &#xa;
                <mxCell id="oFbwnjibTauzfTqGPlC0-87" value="" style="ellipse;whiteSpace=wrap;html=1;aspect=fixed;fillColor=#FFB570;strokeColor=none;" parent="oFbwnjibTauzfTqGPlC0-86" vertex="1">
                    &#xa;
                    <mxGeometry width="40" height="40" as="geometry"/>
                    &#xa;
                </mxCell>
                &#xa;
                <mxCell id="oFbwnjibTauzfTqGPlC0-88" value="" style="rounded=0;whiteSpace=wrap;html=1;fontColor=#007FFF;fillColor=#FFB570;strokeColor=none;" parent="oFbwnjibTauzfTqGPlC0-86" vertex="1">
                    &#xa;
                    <mxGeometry x="14.5" y="0.5" width="25" height="25.5" as="geometry"/>
                    &#xa;
                </mxCell>
                &#xa;
                <mxCell id="oFbwnjibTauzfTqGPlC0-89" value="&lt;font style=&quot;font-size: 16px&quot;&gt;5&lt;/font&gt;" style="text;html=1;align=center;verticalAlign=middle;resizable=0;points=[];autosize=1;strokeColor=none;fillColor=none;fontSize=13;fontColor=#000000;fontStyle=1" parent="oFbwnjibTauzfTqGPlC0-86" vertex="1">
                    &#xa;
                    <mxGeometry x="10" y="10" width="20" height="20" as="geometry"/>
                    &#xa;
                </mxCell>
                &#xa;
                <mxCell id="oFbwnjibTauzfTqGPlC0-90" value="&lt;span style=&quot;font-family: &amp;#34;helvetica&amp;#34; ; font-size: 16px ; font-style: normal ; font-weight: 400 ; letter-spacing: normal ; text-indent: 0px ; text-transform: none ; word-spacing: 0px ; display: inline ; float: none&quot;&gt;Return&lt;/span&gt;" style="text;whiteSpace=wrap;html=1;fontSize=17;fontFamily=Verdana;align=center;labelBackgroundColor=none;fillColor=#fff2cc;strokeColor=#d6b656;fontColor=#000000;" parent="oFbwnjibTauzfTqGPlC0-1" vertex="1">
                    &#xa;
                    <mxGeometry x="640" y="555" width="80" height="30" as="geometry"/>
                    &#xa;
                </mxCell>
                &#xa;
                <mxCell id="7KscYYDJ5lPupZ8GLUKU-16" value="" style="group" parent="oFbwnjibTauzfTqGPlC0-1" vertex="1" connectable="0">
                    &#xa;
                    <mxGeometry x="240" y="342.0003759398496" width="103.31049289891396" height="86.61962406015037" as="geometry"/>
                    &#xa;
                </mxCell>
                &#xa;
                <mxCell id="7KscYYDJ5lPupZ8GLUKU-6" value="" style="shape=image;html=1;verticalAlign=top;verticalLabelPosition=bottom;labelBackgroundColor=#ffffff;imageAspect=0;aspect=fixed;image=https://cdn0.iconfinder.com/data/icons/phosphor-regular-vol-4/256/tree-evergreen-128.png;sketch=0;" parent="7KscYYDJ5lPupZ8GLUKU-16" vertex="1">
                    &#xa;
                    <mxGeometry y="0.0030827067669165764" width="43.30827067669173" height="43.30827067669173" as="geometry"/>
                    &#xa;
                </mxCell>
                &#xa;
                <mxCell id="7KscYYDJ5lPupZ8GLUKU-8" value="" style="shape=image;html=1;verticalAlign=top;verticalLabelPosition=bottom;labelBackgroundColor=#ffffff;imageAspect=0;aspect=fixed;image=https://cdn0.iconfinder.com/data/icons/phosphor-regular-vol-4/256/tree-evergreen-128.png;sketch=0;" parent="7KscYYDJ5lPupZ8GLUKU-16" vertex="1">
                    &#xa;
                    <mxGeometry x="28.915" y="6.769624060150376" width="43.30827067669173" height="43.30827067669173" as="geometry"/>
                    &#xa;
                </mxCell>
                &#xa;
                <mxCell id="7KscYYDJ5lPupZ8GLUKU-10" value="" style="shape=image;html=1;verticalAlign=top;verticalLabelPosition=bottom;labelBackgroundColor=#ffffff;imageAspect=0;aspect=fixed;image=https://cdn0.iconfinder.com/data/icons/phosphor-regular-vol-4/256/tree-evergreen-128.png;sketch=0;" parent="7KscYYDJ5lPupZ8GLUKU-16" vertex="1">
                    &#xa;
                    <mxGeometry x="60.00222222222223" width="43.30827067669173" height="43.30827067669173" as="geometry"/>
                    &#xa;
                </mxCell>
                &#xa;
                <mxCell id="7KscYYDJ5lPupZ8GLUKU-13" value="" style="shape=image;html=1;verticalAlign=top;verticalLabelPosition=bottom;labelBackgroundColor=#ffffff;imageAspect=0;aspect=fixed;image=https://cdn3.iconfinder.com/data/icons/summer-glyph-24-px/24/Ocean_sea_sea_waves_water_water_waves-128.png;sketch=0;" parent="7KscYYDJ5lPupZ8GLUKU-16" vertex="1">
                    &#xa;
                    <mxGeometry x="9.027777777777779" y="39.927894736842106" width="43.30827067669173" height="43.30827067669173" as="geometry"/>
                    &#xa;
                </mxCell>
                &#xa;
                <mxCell id="7KscYYDJ5lPupZ8GLUKU-14" value="" style="shape=image;html=1;verticalAlign=top;verticalLabelPosition=bottom;labelBackgroundColor=#ffffff;imageAspect=0;aspect=fixed;image=https://cdn3.iconfinder.com/data/icons/summer-glyph-24-px/24/Ocean_sea_sea_waves_water_water_waves-128.png;sketch=0;" parent="7KscYYDJ5lPupZ8GLUKU-16" vertex="1">
                    &#xa;
                    <mxGeometry x="43.346666666666664" y="43.31135338345864" width="43.30827067669173" height="43.30827067669173" as="geometry"/>
                    &#xa;
                </mxCell>
                &#xa;
                <mxCell id="7KscYYDJ5lPupZ8GLUKU-17" value="" style="shape=image;html=1;verticalAlign=top;verticalLabelPosition=bottom;labelBackgroundColor=#ffffff;imageAspect=0;aspect=fixed;image=https://cdn3.iconfinder.com/data/icons/summer-glyph-24-px/24/Ocean_sea_sea_waves_water_water_waves-128.png;sketch=0;" parent="oFbwnjibTauzfTqGPlC0-1" vertex="1">
                    &#xa;
                    <mxGeometry x="515.5" y="516" width="69" height="69" as="geometry"/>
                    &#xa;
                </mxCell>
                &#xa;
                <mxCell id="7KscYYDJ5lPupZ8GLUKU-26" value="" style="group" parent="oFbwnjibTauzfTqGPlC0-1" vertex="1" connectable="0">
                    &#xa;
                    <mxGeometry x="505" y="350" width="84" height="80" as="geometry"/>
                    &#xa;
                </mxCell>
                &#xa;
                <mxCell id="7KscYYDJ5lPupZ8GLUKU-23" value="" style="shape=waypoint;sketch=0;size=6;pointerEvents=1;points=[];fillColor=none;resizable=0;rotatable=0;perimeter=centerPerimeter;snapToPoint=1;labelBackgroundColor=none;fontColor=#000000;strokeWidth=0;" parent="7KscYYDJ5lPupZ8GLUKU-26" vertex="1">
                    &#xa;
                    <mxGeometry x="16.9375" y="8.49956647398843" width="40" height="40" as="geometry"/>
                    &#xa;
                </mxCell>
                &#xa;
                <mxCell id="7KscYYDJ5lPupZ8GLUKU-18" value="" style="shape=image;html=1;verticalAlign=top;verticalLabelPosition=bottom;labelBackgroundColor=#ffffff;imageAspect=0;aspect=fixed;image=https://cdn1.iconfinder.com/data/icons/ionicons-outline-vol-2/512/water-outline-128.png;sketch=0;" parent="7KscYYDJ5lPupZ8GLUKU-26" vertex="1">
                    &#xa;
                    <mxGeometry width="80" height="80" as="geometry"/>
                    &#xa;
                </mxCell>
                &#xa;
                <mxCell id="7KscYYDJ5lPupZ8GLUKU-19" value="" style="endArrow=none;html=1;rounded=0;strokeWidth=5;" parent="7KscYYDJ5lPupZ8GLUKU-26" edge="1">
                    &#xa;
                    <mxGeometry width="50" height="50" relative="1" as="geometry">
                        &#xa;
                        <mxPoint x="3.9375" y="40.75" as="sourcePoint"/>
                        &#xa;
                        <mxPoint x="82.6875" y="40.75" as="targetPoint"/>
                        &#xa;
                    </mxGeometry>
                    &#xa;
                </mxCell>
                &#xa;
                <mxCell id="7KscYYDJ5lPupZ8GLUKU-20" value="" style="shape=waypoint;sketch=0;size=6;pointerEvents=1;points=[];fillColor=none;resizable=0;rotatable=0;perimeter=centerPerimeter;snapToPoint=1;labelBackgroundColor=none;fontColor=#000000;strokeWidth=0;" parent="7KscYYDJ5lPupZ8GLUKU-26" vertex="1">
                    &#xa;
                    <mxGeometry x="31.046875" y="14.37456647398843" width="40" height="40" as="geometry"/>
                    &#xa;
                </mxCell>
                &#xa;
                <mxCell id="7KscYYDJ5lPupZ8GLUKU-21" value="" style="shape=waypoint;sketch=0;size=6;pointerEvents=1;points=[];fillColor=none;resizable=0;rotatable=0;perimeter=centerPerimeter;snapToPoint=1;labelBackgroundColor=none;fontColor=#000000;strokeWidth=0;" parent="7KscYYDJ5lPupZ8GLUKU-26" vertex="1">
                    &#xa;
                    <mxGeometry x="9.75" y="13.74956647398843" width="40" height="40" as="geometry"/>
                    &#xa;
                </mxCell>
                &#xa;
                <mxCell id="7KscYYDJ5lPupZ8GLUKU-22" value="" style="shape=waypoint;sketch=0;size=6;pointerEvents=1;points=[];fillColor=none;resizable=0;rotatable=0;perimeter=centerPerimeter;snapToPoint=1;labelBackgroundColor=none;fontColor=#000000;strokeWidth=0;" parent="7KscYYDJ5lPupZ8GLUKU-26" vertex="1">
                    &#xa;
                    <mxGeometry x="23.46875" y="2.2495664739884305" width="40" height="40" as="geometry"/>
                    &#xa;
                </mxCell>
                &#xa;
                <mxCell id="7KscYYDJ5lPupZ8GLUKU-24" value="" style="verticalLabelPosition=bottom;verticalAlign=top;html=1;shape=mxgraph.basic.4_point_star_2;dx=0.8;sketch=0;strokeWidth=2;" parent="7KscYYDJ5lPupZ8GLUKU-26" vertex="1">
                    &#xa;
                    <mxGeometry x="13.125" y="49.375" width="17.71875" height="25.625" as="geometry"/>
                    &#xa;
                </mxCell>
                &#xa;
                <mxCell id="7KscYYDJ5lPupZ8GLUKU-25" value="" style="verticalLabelPosition=bottom;verticalAlign=top;html=1;shape=mxgraph.basic.4_point_star_2;dx=0.8;sketch=0;strokeWidth=2;" parent="7KscYYDJ5lPupZ8GLUKU-26" vertex="1">
                    &#xa;
                    <mxGeometry x="59.71875" y="42.5" width="17.71875" height="25.625" as="geometry"/>
                    &#xa;
                </mxCell>
                &#xa;
                <mxCell id="7KscYYDJ5lPupZ8GLUKU-30" value="" style="group" parent="oFbwnjibTauzfTqGPlC0-1" vertex="1" connectable="0">
                    &#xa;
                    <mxGeometry x="964.5" y="375" width="61" height="194.79999999999995" as="geometry"/>
                    &#xa;
                </mxCell>
                &#xa;
                <mxCell id="oFbwnjibTauzfTqGPlC0-41" value="" style="group" parent="7KscYYDJ5lPupZ8GLUKU-30" vertex="1" connectable="0">
                    &#xa;
                    <mxGeometry x="10.5" y="64.65317919075142" width="40" height="75.14450867052022" as="geometry"/>
                    &#xa;
                </mxCell>
                &#xa;
                <mxCell id="oFbwnjibTauzfTqGPlC0-42" value="" style="shape=waypoint;sketch=0;size=6;pointerEvents=1;points=[];fillColor=none;resizable=0;rotatable=0;perimeter=centerPerimeter;snapToPoint=1;labelBackgroundColor=none;fontColor=#000000;" parent="oFbwnjibTauzfTqGPlC0-41" vertex="1">
                    &#xa;
                    <mxGeometry width="40" height="40" as="geometry"/>
                    &#xa;
                </mxCell>
                &#xa;
                <mxCell id="oFbwnjibTauzfTqGPlC0-43" value="" style="shape=waypoint;sketch=0;size=6;pointerEvents=1;points=[];fillColor=none;resizable=0;rotatable=0;perimeter=centerPerimeter;snapToPoint=1;labelBackgroundColor=none;fontColor=#000000;" parent="oFbwnjibTauzfTqGPlC0-41" vertex="1">
                    &#xa;
                    <mxGeometry y="18.786127167630056" width="40" height="40" as="geometry"/>
                    &#xa;
                </mxCell>
                &#xa;
                <mxCell id="oFbwnjibTauzfTqGPlC0-44" value="" style="shape=waypoint;sketch=0;size=6;pointerEvents=1;points=[];fillColor=none;resizable=0;rotatable=0;perimeter=centerPerimeter;snapToPoint=1;labelBackgroundColor=none;fontColor=#000000;" parent="oFbwnjibTauzfTqGPlC0-41" vertex="1">
                    &#xa;
                    <mxGeometry y="37.57225433526011" width="40" height="40" as="geometry"/>
                    &#xa;
                </mxCell>
                &#xa;
                <mxCell id="7KscYYDJ5lPupZ8GLUKU-49" value="" style="html=1;verticalLabelPosition=bottom;align=center;labelBackgroundColor=#ffffff;verticalAlign=top;strokeWidth=2;strokeColor=#000000;shadow=0;dashed=0;shape=mxgraph.ios7.icons.home;sketch=0;fillStyle=solid;fontFamily=Helvetica;fontSize=12;fontColor=default;fillColor=default;" parent="7KscYYDJ5lPupZ8GLUKU-30" vertex="1">
                    &#xa;
                    <mxGeometry x="2" y="0.3100000000000023" width="57" height="60" as="geometry"/>
                    &#xa;
                </mxCell>
                &#xa;
                <mxCell id="7KscYYDJ5lPupZ8GLUKU-41" value="" style="group" parent="oFbwnjibTauzfTqGPlC0-1" vertex="1" connectable="0">
                    &#xa;
                    <mxGeometry x="760" y="507" width="84" height="93" as="geometry"/>
                    &#xa;
                </mxCell>
                &#xa;
                <mxCell id="7KscYYDJ5lPupZ8GLUKU-38" value="" style="shape=image;html=1;verticalAlign=top;verticalLabelPosition=bottom;labelBackgroundColor=#ffffff;imageAspect=0;aspect=fixed;image=https://cdn1.iconfinder.com/data/icons/ionicons-outline-vol-2/512/water-outline-128.png;sketch=0;fillStyle=solid;strokeColor=default;strokeWidth=0;fontFamily=Helvetica;fontSize=12;fontColor=default;fillColor=default;" parent="7KscYYDJ5lPupZ8GLUKU-41" vertex="1">
                    &#xa;
                    <mxGeometry width="84" height="84" as="geometry"/>
                    &#xa;
                </mxCell>
                &#xa;
                <mxCell id="7KscYYDJ5lPupZ8GLUKU-39" value="" style="shape=image;html=1;verticalAlign=top;verticalLabelPosition=bottom;labelBackgroundColor=#ffffff;imageAspect=0;aspect=fixed;image=https://cdn0.iconfinder.com/data/icons/phosphor-duotone-vol-3/256/recycle-duotone-128.png;sketch=0;fillStyle=solid;strokeColor=default;strokeWidth=0;fontFamily=Helvetica;fontSize=12;fontColor=default;fillColor=default;" parent="7KscYYDJ5lPupZ8GLUKU-41" vertex="1">
                    &#xa;
                    <mxGeometry x="30.39000000000004" y="32.88214285714285" width="24.6" height="24.6" as="geometry"/>
                    &#xa;
                </mxCell>
                &#xa;
                <mxCell id="7KscYYDJ5lPupZ8GLUKU-44" value="" style="group" parent="oFbwnjibTauzfTqGPlC0-1" vertex="1" connectable="0">
                    &#xa;
                    <mxGeometry x="772" y="360" width="106" height="96.25" as="geometry"/>
                    &#xa;
                </mxCell>
                &#xa;
                <mxCell id="7KscYYDJ5lPupZ8GLUKU-42" value="" style="strokeWidth=2;html=1;shape=mxgraph.flowchart.database;whiteSpace=wrap;labelBackgroundColor=#ffffff;sketch=0;fillStyle=solid;strokeColor=default;fontFamily=Helvetica;fontSize=12;fontColor=default;fillColor=default;" parent="7KscYYDJ5lPupZ8GLUKU-44" vertex="1">
                    &#xa;
                    <mxGeometry width="60" height="60" as="geometry"/>
                    &#xa;
                </mxCell>
                &#xa;
                <mxCell id="7KscYYDJ5lPupZ8GLUKU-43" value="" style="shape=image;html=1;verticalAlign=top;verticalLabelPosition=bottom;labelBackgroundColor=#ffffff;imageAspect=0;aspect=fixed;image=https://cdn1.iconfinder.com/data/icons/ionicons-outline-vol-2/512/water-outline-128.png;sketch=0;fillStyle=solid;strokeColor=default;strokeWidth=0;fontFamily=Helvetica;fontSize=12;fontColor=default;fillColor=default;" parent="7KscYYDJ5lPupZ8GLUKU-44" vertex="1">
                    &#xa;
                    <mxGeometry x="10" y="20" width="40" height="40" as="geometry"/>
                    &#xa;
                </mxCell>
                &#xa;
                <mxCell id="7KscYYDJ5lPupZ8GLUKU-50" value="" style="html=1;verticalLabelPosition=bottom;align=center;labelBackgroundColor=#ffffff;verticalAlign=top;strokeWidth=2;strokeColor=#000000;shadow=0;dashed=0;shape=mxgraph.ios7.icons.home;sketch=0;fillStyle=solid;fontFamily=Helvetica;fontSize=12;fontColor=default;fillColor=default;" parent="oFbwnjibTauzfTqGPlC0-1" vertex="1">
                    &#xa;
                    <mxGeometry x="965.5" y="511.31" width="57" height="60" as="geometry"/>
                    &#xa;
                </mxCell>
                &#xa;
                <mxCell id="7KscYYDJ5lPupZ8GLUKU-82" value="" style="group" parent="oFbwnjibTauzfTqGPlC0-1" vertex="1" connectable="0">
                    &#xa;
                    <mxGeometry x="940" y="610" width="161" height="52.57543352601158" as="geometry"/>
                    &#xa;
                </mxCell>
                &#xa;
                <mxCell id="7KscYYDJ5lPupZ8GLUKU-69" value="" style="shape=ext;double=1;rounded=1;whiteSpace=wrap;html=1;labelBackgroundColor=#ffffff;fillStyle=auto;strokeWidth=3;fontFamily=Helvetica;fontSize=12;perimeterSpacing=0;shadow=0;glass=0;" parent="7KscYYDJ5lPupZ8GLUKU-82" vertex="1">
                    &#xa;
                    <mxGeometry x="110" y="16.78048780487802" width="51" height="31.21951219512195" as="geometry"/>
                    &#xa;
                </mxCell>
                &#xa;
                <mxCell id="7KscYYDJ5lPupZ8GLUKU-70" value="" style="shape=link;html=1;rounded=0;strokeWidth=5;fontFamily=Helvetica;fontSize=12;fontColor=default;" parent="7KscYYDJ5lPupZ8GLUKU-82" edge="1">
                    &#xa;
                    <mxGeometry x="-1" y="191" width="100" relative="1" as="geometry">
                        &#xa;
                        <mxPoint x="118.92499999999995" y="44.09756097560978" as="sourcePoint"/>
                        &#xa;
                        <mxPoint x="118.92499999999995" y="20.68292682926824" as="targetPoint"/>
                        &#xa;
                        <mxPoint x="1" y="20" as="offset"/>
                        &#xa;
                    </mxGeometry>
                    &#xa;
                </mxCell>
                &#xa;
                <mxCell id="7KscYYDJ5lPupZ8GLUKU-71" value="" style="shape=link;html=1;rounded=0;strokeWidth=5;fontFamily=Helvetica;fontSize=12;fontColor=default;" parent="7KscYYDJ5lPupZ8GLUKU-82" edge="1">
                    &#xa;
                    <mxGeometry x="-1" y="191" width="100" relative="1" as="geometry">
                        &#xa;
                        <mxPoint x="127.42499999999995" y="44.09756097560978" as="sourcePoint"/>
                        &#xa;
                        <mxPoint x="127.42499999999995" y="20.68292682926824" as="targetPoint"/>
                        &#xa;
                        <mxPoint x="1" y="20" as="offset"/>
                        &#xa;
                    </mxGeometry>
                    &#xa;
                </mxCell>
                &#xa;
                <mxCell id="7KscYYDJ5lPupZ8GLUKU-72" value="" style="shape=link;html=1;rounded=0;strokeWidth=5;fontFamily=Helvetica;fontSize=12;fontColor=default;" parent="7KscYYDJ5lPupZ8GLUKU-82" edge="1">
                    &#xa;
                    <mxGeometry x="-1" y="191" width="100" relative="1" as="geometry">
                        &#xa;
                        <mxPoint x="135.92499999999995" y="44.09756097560978" as="sourcePoint"/>
                        &#xa;
                        <mxPoint x="135.92499999999995" y="20.68292682926824" as="targetPoint"/>
                        &#xa;
                        <mxPoint x="1" y="20" as="offset"/>
                        &#xa;
                    </mxGeometry>
                    &#xa;
                </mxCell>
                &#xa;
                <mxCell id="7KscYYDJ5lPupZ8GLUKU-73" value="" style="shape=link;html=1;rounded=0;strokeWidth=5;fontFamily=Helvetica;fontSize=12;fontColor=default;" parent="7KscYYDJ5lPupZ8GLUKU-82" edge="1">
                    &#xa;
                    <mxGeometry x="-1" y="191" width="100" relative="1" as="geometry">
                        &#xa;
                        <mxPoint x="144.42499999999995" y="44.09756097560978" as="sourcePoint"/>
                        &#xa;
                        <mxPoint x="144.42499999999995" y="20.68292682926824" as="targetPoint"/>
                        &#xa;
                        <mxPoint x="1" y="20" as="offset"/>
                        &#xa;
                    </mxGeometry>
                    &#xa;
                </mxCell>
                &#xa;
                <mxCell id="7KscYYDJ5lPupZ8GLUKU-74" value="" style="shape=link;html=1;rounded=0;strokeWidth=5;fontFamily=Helvetica;fontSize=12;fontColor=default;" parent="7KscYYDJ5lPupZ8GLUKU-82" edge="1">
                    &#xa;
                    <mxGeometry x="-1" y="191" width="100" relative="1" as="geometry">
                        &#xa;
                        <mxPoint x="152.92499999999995" y="44.09756097560978" as="sourcePoint"/>
                        &#xa;
                        <mxPoint x="152.92499999999995" y="20.68292682926824" as="targetPoint"/>
                        &#xa;
                        <mxPoint x="1" y="20" as="offset"/>
                        &#xa;
                    </mxGeometry>
                    &#xa;
                </mxCell>
                &#xa;
                <mxCell id="7KscYYDJ5lPupZ8GLUKU-75" value="" style="shape=image;html=1;verticalAlign=top;verticalLabelPosition=bottom;labelBackgroundColor=#ffffff;imageAspect=0;aspect=fixed;image=https://cdn1.iconfinder.com/data/icons/ionicons-outline-vol-2/512/water-outline-128.png;sketch=0;fillStyle=solid;strokeColor=default;strokeWidth=0;fontFamily=Helvetica;fontSize=12;fontColor=default;fillColor=default;imageBackground=none;connectable=0;" parent="7KscYYDJ5lPupZ8GLUKU-82" vertex="1">
                    &#xa;
                    <mxGeometry x="125.68249999999989" width="15.687804878048782" height="15.687804878048782" as="geometry"/>
                    &#xa;
                </mxCell>
                &#xa;
                <mxCell id="7KscYYDJ5lPupZ8GLUKU-76" value="" style="shape=image;html=1;verticalAlign=top;verticalLabelPosition=bottom;labelBackgroundColor=#ffffff;imageAspect=0;aspect=fixed;image=https://cdn1.iconfinder.com/data/icons/ionicons-outline-vol-2/512/water-outline-128.png;sketch=0;fillStyle=solid;strokeColor=default;strokeWidth=0;fontFamily=Helvetica;fontSize=12;fontColor=default;fillColor=default;imageBackground=none;connectable=0;" parent="7KscYYDJ5lPupZ8GLUKU-82" vertex="1">
                    &#xa;
                    <mxGeometry x="111.65750000000003" y="3.121951219512198" width="15.687804878048782" height="15.687804878048782" as="geometry"/>
                    &#xa;
                </mxCell>
                &#xa;
                <mxCell id="7KscYYDJ5lPupZ8GLUKU-77" value="" style="shape=image;html=1;verticalAlign=top;verticalLabelPosition=bottom;labelBackgroundColor=#ffffff;imageAspect=0;aspect=fixed;image=https://cdn1.iconfinder.com/data/icons/ionicons-outline-vol-2/512/water-outline-128.png;sketch=0;fillStyle=solid;strokeColor=default;strokeWidth=0;fontFamily=Helvetica;fontSize=12;fontColor=default;fillColor=default;imageBackground=none;connectable=0;" parent="7KscYYDJ5lPupZ8GLUKU-82" vertex="1">
                    &#xa;
                    <mxGeometry x="138.4324999999999" y="2.7317073170731874" width="15.687804878048782" height="15.687804878048782" as="geometry"/>
                    &#xa;
                </mxCell>
                &#xa;
                <mxCell id="7KscYYDJ5lPupZ8GLUKU-51" value="" style="shape=ext;double=1;rounded=1;whiteSpace=wrap;html=1;labelBackgroundColor=#ffffff;fillStyle=auto;strokeWidth=3;fontFamily=Helvetica;fontSize=12;perimeterSpacing=0;shadow=0;glass=0;" parent="7KscYYDJ5lPupZ8GLUKU-82" vertex="1">
                    &#xa;
                    <mxGeometry y="16.78048780487802" width="51" height="31.21951219512195" as="geometry"/>
                    &#xa;
                </mxCell>
                &#xa;
                <mxCell id="7KscYYDJ5lPupZ8GLUKU-52" value="" style="shape=link;html=1;rounded=0;strokeWidth=5;fontFamily=Helvetica;fontSize=12;fontColor=default;" parent="7KscYYDJ5lPupZ8GLUKU-82" edge="1">
                    &#xa;
                    <mxGeometry x="-1" y="191" width="100" relative="1" as="geometry">
                        &#xa;
                        <mxPoint x="8.924999999999955" y="44.09756097560978" as="sourcePoint"/>
                        &#xa;
                        <mxPoint x="8.924999999999955" y="20.68292682926824" as="targetPoint"/>
                        &#xa;
                        <mxPoint x="1" y="20" as="offset"/>
                        &#xa;
                    </mxGeometry>
                    &#xa;
                </mxCell>
                &#xa;
                <mxCell id="7KscYYDJ5lPupZ8GLUKU-59" value="" style="shape=link;html=1;rounded=0;strokeWidth=5;fontFamily=Helvetica;fontSize=12;fontColor=default;" parent="7KscYYDJ5lPupZ8GLUKU-82" edge="1">
                    &#xa;
                    <mxGeometry x="-1" y="191" width="100" relative="1" as="geometry">
                        &#xa;
                        <mxPoint x="17.424999999999955" y="44.09756097560978" as="sourcePoint"/>
                        &#xa;
                        <mxPoint x="17.424999999999955" y="20.68292682926824" as="targetPoint"/>
                        &#xa;
                        <mxPoint x="1" y="20" as="offset"/>
                        &#xa;
                    </mxGeometry>
                    &#xa;
                </mxCell>
                &#xa;
                <mxCell id="7KscYYDJ5lPupZ8GLUKU-60" value="" style="shape=link;html=1;rounded=0;strokeWidth=5;fontFamily=Helvetica;fontSize=12;fontColor=default;" parent="7KscYYDJ5lPupZ8GLUKU-82" edge="1">
                    &#xa;
                    <mxGeometry x="-1" y="191" width="100" relative="1" as="geometry">
                        &#xa;
                        <mxPoint x="25.924999999999955" y="44.09756097560978" as="sourcePoint"/>
                        &#xa;
                        <mxPoint x="25.924999999999955" y="20.68292682926824" as="targetPoint"/>
                        &#xa;
                        <mxPoint x="1" y="20" as="offset"/>
                        &#xa;
                    </mxGeometry>
                    &#xa;
                </mxCell>
                &#xa;
                <mxCell id="7KscYYDJ5lPupZ8GLUKU-61" value="" style="shape=link;html=1;rounded=0;strokeWidth=5;fontFamily=Helvetica;fontSize=12;fontColor=default;" parent="7KscYYDJ5lPupZ8GLUKU-82" edge="1">
                    &#xa;
                    <mxGeometry x="-1" y="191" width="100" relative="1" as="geometry">
                        &#xa;
                        <mxPoint x="34.424999999999955" y="44.09756097560978" as="sourcePoint"/>
                        &#xa;
                        <mxPoint x="34.424999999999955" y="20.68292682926824" as="targetPoint"/>
                        &#xa;
                        <mxPoint x="1" y="20" as="offset"/>
                        &#xa;
                    </mxGeometry>
                    &#xa;
                </mxCell>
                &#xa;
                <mxCell id="7KscYYDJ5lPupZ8GLUKU-62" value="" style="shape=link;html=1;rounded=0;strokeWidth=5;fontFamily=Helvetica;fontSize=12;fontColor=default;" parent="7KscYYDJ5lPupZ8GLUKU-82" edge="1">
                    &#xa;
                    <mxGeometry x="-1" y="191" width="100" relative="1" as="geometry">
                        &#xa;
                        <mxPoint x="42.924999999999955" y="44.09756097560978" as="sourcePoint"/>
                        &#xa;
                        <mxPoint x="42.924999999999955" y="20.68292682926824" as="targetPoint"/>
                        &#xa;
                        <mxPoint x="1" y="20" as="offset"/>
                        &#xa;
                    </mxGeometry>
                    &#xa;
                </mxCell>
                &#xa;
                <mxCell id="7KscYYDJ5lPupZ8GLUKU-63" value="" style="shape=image;html=1;verticalAlign=top;verticalLabelPosition=bottom;labelBackgroundColor=#ffffff;imageAspect=0;aspect=fixed;image=https://cdn1.iconfinder.com/data/icons/ionicons-outline-vol-2/512/water-outline-128.png;sketch=0;fillStyle=solid;strokeColor=default;strokeWidth=0;fontFamily=Helvetica;fontSize=12;fontColor=default;fillColor=default;imageBackground=none;connectable=0;" parent="7KscYYDJ5lPupZ8GLUKU-82" vertex="1">
                    &#xa;
                    <mxGeometry x="15.682500000000005" width="15.687804878048782" height="15.687804878048782" as="geometry"/>
                    &#xa;
                </mxCell>
                &#xa;
                <mxCell id="7KscYYDJ5lPupZ8GLUKU-65" value="" style="shape=image;html=1;verticalAlign=top;verticalLabelPosition=bottom;labelBackgroundColor=#ffffff;imageAspect=0;aspect=fixed;image=https://cdn1.iconfinder.com/data/icons/ionicons-outline-vol-2/512/water-outline-128.png;sketch=0;fillStyle=solid;strokeColor=default;strokeWidth=0;fontFamily=Helvetica;fontSize=12;fontColor=default;fillColor=default;imageBackground=none;connectable=0;" parent="7KscYYDJ5lPupZ8GLUKU-82" vertex="1">
                    &#xa;
                    <mxGeometry x="1.6575000000000273" y="3.121951219512198" width="15.687804878048782" height="15.687804878048782" as="geometry"/>
                    &#xa;
                </mxCell>
                &#xa;
                <mxCell id="7KscYYDJ5lPupZ8GLUKU-66" value="" style="shape=image;html=1;verticalAlign=top;verticalLabelPosition=bottom;labelBackgroundColor=#ffffff;imageAspect=0;aspect=fixed;image=https://cdn1.iconfinder.com/data/icons/ionicons-outline-vol-2/512/water-outline-128.png;sketch=0;fillStyle=solid;strokeColor=default;strokeWidth=0;fontFamily=Helvetica;fontSize=12;fontColor=default;fillColor=default;imageBackground=none;connectable=0;" parent="7KscYYDJ5lPupZ8GLUKU-82" vertex="1">
                    &#xa;
                    <mxGeometry x="28.432500000000005" y="2.7317073170731874" width="15.687804878048782" height="15.687804878048782" as="geometry"/>
                    &#xa;
                </mxCell>
                &#xa;
                <mxCell id="oFbwnjibTauzfTqGPlC0-65" value="" style="group;rotation=-90;" parent="7KscYYDJ5lPupZ8GLUKU-82" vertex="1" connectable="0">
                    &#xa;
                    <mxGeometry x="60" y="-4.996820809248561" width="40" height="75.14450867052022" as="geometry"/>
                    &#xa;
                </mxCell>
                &#xa;
                <mxCell id="oFbwnjibTauzfTqGPlC0-66" value="" style="shape=waypoint;sketch=0;size=6;pointerEvents=1;points=[];fillColor=none;resizable=0;rotatable=0;perimeter=centerPerimeter;snapToPoint=1;labelBackgroundColor=none;fontColor=#000000;rotation=-90;" parent="oFbwnjibTauzfTqGPlC0-65" vertex="1">
                    &#xa;
                    <mxGeometry x="-18" y="18" width="40" height="40" as="geometry"/>
                    &#xa;
                </mxCell>
                &#xa;
                <mxCell id="oFbwnjibTauzfTqGPlC0-67" value="" style="shape=waypoint;sketch=0;size=6;pointerEvents=1;points=[];fillColor=none;resizable=0;rotatable=0;perimeter=centerPerimeter;snapToPoint=1;labelBackgroundColor=none;fontColor=#000000;rotation=-90;" parent="oFbwnjibTauzfTqGPlC0-65" vertex="1">
                    &#xa;
                    <mxGeometry x="1" y="18" width="40" height="40" as="geometry"/>
                    &#xa;
                </mxCell>
                &#xa;
                <mxCell id="oFbwnjibTauzfTqGPlC0-68" value="" style="shape=waypoint;sketch=0;size=6;pointerEvents=1;points=[];fillColor=none;resizable=0;rotatable=0;perimeter=centerPerimeter;snapToPoint=1;labelBackgroundColor=none;fontColor=#000000;rotation=-90;" parent="oFbwnjibTauzfTqGPlC0-65" vertex="1">
                    &#xa;
                    <mxGeometry x="20" y="18" width="40" height="40" as="geometry"/>
                    &#xa;
                </mxCell>
                &#xa;
            </root>
            &#xa;
        </mxGraphModel>
        &#xa;
    </diagram>
    <diagram id="9RZnszeeriPH_W6Zj929" name="waste_management">
        &#xa;        &#xa;&#xa;
        <mxGraphModel dx="1031" dy="616" grid="1" gridSize="10" guides="1" tooltips="1" connect="1" arrows="1" fold="1" page="1" pageScale="1" pageWidth="827" pageHeight="1169" math="0" shadow="0">
            &#xa;            &#xa;&#xa;
            <root>
                &#xa;                &#xa;&#xa;
                <mxCell id="0"/>
                &#xa;                &#xa;&#xa;
                <mxCell id="1" parent="0"/>
                &#xa;                &#xa;&#xa;
                <mxCell id="i18VuKxH_AuY5O1re8w1-2" value="" style="endArrow=classic;html=1;rounded=0;fontSize=16;fontColor=#000000;fillColor=#ffe6cc;strokeColor=#FFCE9F;strokeWidth=6;entryX=0;entryY=0.5;entryDx=0;entryDy=0;exitX=1;exitY=0.5;exitDx=0;exitDy=0;" parent="1" edge="1">
                    &#xa;                    &#xa;&#xa;
                    <mxGeometry width="50" height="50" relative="1" as="geometry">
                        &#xa;                        &#xa;&#xa;
                        <mxPoint x="335" y="386.25" as="sourcePoint"/>
                        &#xa;                        &#xa;&#xa;
                        <mxPoint x="506" y="386.5" as="targetPoint"/>
                        &#xa;                        &#xa;&#xa;
                    </mxGeometry>
                    &#xa;                    &#xa;&#xa;
                </mxCell>
                &#xa;                &#xa;&#xa;
                <mxCell id="i18VuKxH_AuY5O1re8w1-4" value="&lt;span style=&quot;font-family: &amp;quot;helvetica&amp;quot; ; font-size: 16px ; font-style: normal ; font-weight: 400 ; letter-spacing: normal ; text-indent: 0px ; text-transform: none ; word-spacing: 0px ; display: inline ; float: none&quot;&gt;Recycled&lt;/span&gt;" style="text;whiteSpace=wrap;html=1;fontSize=17;fontFamily=Verdana;align=center;labelBackgroundColor=none;fillColor=#fff2cc;strokeColor=#d6b656;fontColor=#000000;" parent="1" vertex="1">
                    &#xa;                    &#xa;&#xa;
                    <mxGeometry x="885" y="401" width="80" height="30" as="geometry"/>
                    &#xa;                    &#xa;&#xa;
                </mxCell>
                &#xa;                &#xa;&#xa;
                <mxCell id="i18VuKxH_AuY5O1re8w1-5" value="&lt;span style=&quot;font-family: &amp;quot;helvetica&amp;quot; ; font-size: 16px ; font-style: normal ; font-weight: 400 ; letter-spacing: normal ; text-indent: 0px ; text-transform: none ; word-spacing: 0px ; display: inline ; float: none&quot;&gt;Littering&lt;br&gt;&lt;/span&gt;" style="text;whiteSpace=wrap;html=1;fontSize=17;fontFamily=Verdana;align=center;labelBackgroundColor=none;fillColor=#fff2cc;strokeColor=#d6b656;fontColor=#000000;" parent="1" vertex="1">
                    &#xa;                    &#xa;&#xa;
                    <mxGeometry x="370" y="401" width="90" height="30" as="geometry"/>
                    &#xa;                    &#xa;&#xa;
                </mxCell>
                &#xa;                &#xa;&#xa;
                <mxCell id="i18VuKxH_AuY5O1re8w1-6" value="" style="group" parent="1" vertex="1" connectable="0">
                    &#xa;                    &#xa;&#xa;
                    <mxGeometry x="394" y="332.5" width="40" height="40" as="geometry"/>
                    &#xa;                    &#xa;&#xa;
                </mxCell>
                &#xa;                &#xa;&#xa;
                <mxCell id="i18VuKxH_AuY5O1re8w1-7" value="" style="ellipse;whiteSpace=wrap;html=1;aspect=fixed;fillColor=#FFB570;strokeColor=none;" parent="i18VuKxH_AuY5O1re8w1-6" vertex="1">
                    &#xa;                    &#xa;&#xa;
                    <mxGeometry width="40" height="40" as="geometry"/>
                    &#xa;                    &#xa;&#xa;
                </mxCell>
                &#xa;                &#xa;&#xa;
                <mxCell id="i18VuKxH_AuY5O1re8w1-8" value="" style="rounded=0;whiteSpace=wrap;html=1;fontColor=#007FFF;fillColor=#FFB570;strokeColor=none;" parent="i18VuKxH_AuY5O1re8w1-6" vertex="1">
                    &#xa;                    &#xa;&#xa;
                    <mxGeometry x="14.5" y="0.5" width="25" height="25.5" as="geometry"/>
                    &#xa;                    &#xa;&#xa;
                </mxCell>
                &#xa;                &#xa;&#xa;
                <mxCell id="i18VuKxH_AuY5O1re8w1-9" value="&lt;font style=&quot;font-size: 16px;&quot;&gt;1&lt;/font&gt;" style="text;html=1;align=center;verticalAlign=middle;resizable=0;points=[];autosize=1;strokeColor=none;fillColor=none;fontSize=13;fontColor=#000000;fontStyle=1" parent="i18VuKxH_AuY5O1re8w1-6" vertex="1">
                    &#xa;                    &#xa;&#xa;
                    <mxGeometry x="5" y="5" width="30" height="30" as="geometry"/>
                    &#xa;                    &#xa;&#xa;
                </mxCell>
                &#xa;                &#xa;&#xa;
                <mxCell id="i18VuKxH_AuY5O1re8w1-10" value="" style="endArrow=classic;html=1;rounded=0;fontSize=16;fontColor=#000000;fillColor=#ffe6cc;strokeColor=#FFCE9F;strokeWidth=6;entryX=0;entryY=0.5;entryDx=0;entryDy=0;exitX=1;exitY=0.5;exitDx=0;exitDy=0;" parent="1" edge="1">
                    &#xa;                    &#xa;&#xa;
                    <mxGeometry width="50" height="50" relative="1" as="geometry">
                        &#xa;                        &#xa;&#xa;
                        <mxPoint x="593" y="386.5" as="sourcePoint"/>
                        &#xa;                        &#xa;&#xa;
                        <mxPoint x="760" y="385.9999999999999" as="targetPoint"/>
                        &#xa;                        &#xa;&#xa;
                    </mxGeometry>
                    &#xa;                    &#xa;&#xa;
                </mxCell>
                &#xa;                &#xa;&#xa;
                <mxCell id="i18VuKxH_AuY5O1re8w1-11" value="" style="group" parent="1" vertex="1" connectable="0">
                    &#xa;                    &#xa;&#xa;
                    <mxGeometry x="660" y="332.5" width="40" height="40" as="geometry"/>
                    &#xa;                    &#xa;&#xa;
                </mxCell>
                &#xa;                &#xa;&#xa;
                <mxCell id="i18VuKxH_AuY5O1re8w1-12" value="" style="ellipse;whiteSpace=wrap;html=1;aspect=fixed;fillColor=#FFB570;strokeColor=none;" parent="i18VuKxH_AuY5O1re8w1-11" vertex="1">
                    &#xa;                    &#xa;&#xa;
                    <mxGeometry width="40" height="40" as="geometry"/>
                    &#xa;                    &#xa;&#xa;
                </mxCell>
                &#xa;                &#xa;&#xa;
                <mxCell id="i18VuKxH_AuY5O1re8w1-13" value="" style="rounded=0;whiteSpace=wrap;html=1;fontColor=#007FFF;fillColor=#FFB570;strokeColor=none;" parent="i18VuKxH_AuY5O1re8w1-11" vertex="1">
                    &#xa;                    &#xa;&#xa;
                    <mxGeometry x="14.5" y="0.5" width="25" height="25.5" as="geometry"/>
                    &#xa;                    &#xa;&#xa;
                </mxCell>
                &#xa;                &#xa;&#xa;
                <mxCell id="i18VuKxH_AuY5O1re8w1-14" value="&lt;font style=&quot;font-size: 16px&quot;&gt;2&lt;/font&gt;" style="text;html=1;align=center;verticalAlign=middle;resizable=0;points=[];autosize=1;strokeColor=none;fillColor=none;fontSize=13;fontColor=#000000;fontStyle=1" parent="i18VuKxH_AuY5O1re8w1-11" vertex="1">
                    &#xa;                    &#xa;&#xa;
                    <mxGeometry x="10" y="10" width="20" height="20" as="geometry"/>
                    &#xa;                    &#xa;&#xa;
                </mxCell>
                &#xa;                &#xa;&#xa;
                <mxCell id="i18VuKxH_AuY5O1re8w1-15" value="" style="endArrow=classic;html=1;rounded=0;fontSize=16;fontColor=#000000;fillColor=#ffe6cc;strokeColor=#FFCE9F;strokeWidth=6;exitX=1;exitY=0.5;exitDx=0;exitDy=0;entryX=-0.071;entryY=0.386;entryDx=0;entryDy=0;entryPerimeter=0;" parent="1" edge="1">
                    &#xa;                    &#xa;&#xa;
                    <mxGeometry width="50" height="50" relative="1" as="geometry">
                        &#xa;                        &#xa;&#xa;
                        <mxPoint x="880" y="380.99" as="sourcePoint"/>
                        &#xa;                        &#xa;&#xa;
                        <mxPoint x="987.0300000000002" y="382.0100000000001" as="targetPoint"/>
                        &#xa;                        &#xa;&#xa;
                    </mxGeometry>
                    &#xa;                    &#xa;&#xa;
                </mxCell>
                &#xa;                &#xa;&#xa;
                <mxCell id="i18VuKxH_AuY5O1re8w1-16" value="" style="group" parent="1" vertex="1" connectable="0">
                    &#xa;                    &#xa;&#xa;
                    <mxGeometry x="900" y="332.5" width="40" height="40" as="geometry"/>
                    &#xa;                    &#xa;&#xa;
                </mxCell>
                &#xa;                &#xa;&#xa;
                <mxCell id="i18VuKxH_AuY5O1re8w1-17" value="" style="ellipse;whiteSpace=wrap;html=1;aspect=fixed;fillColor=#FFB570;strokeColor=none;" parent="i18VuKxH_AuY5O1re8w1-16" vertex="1">
                    &#xa;                    &#xa;&#xa;
                    <mxGeometry width="40" height="40" as="geometry"/>
                    &#xa;                    &#xa;&#xa;
                </mxCell>
                &#xa;                &#xa;&#xa;
                <mxCell id="i18VuKxH_AuY5O1re8w1-18" value="" style="rounded=0;whiteSpace=wrap;html=1;fontColor=#007FFF;fillColor=#FFB570;strokeColor=none;" parent="i18VuKxH_AuY5O1re8w1-16" vertex="1">
                    &#xa;                    &#xa;&#xa;
                    <mxGeometry x="14.5" y="0.5" width="25" height="25.5" as="geometry"/>
                    &#xa;                    &#xa;&#xa;
                </mxCell>
                &#xa;                &#xa;&#xa;
                <mxCell id="i18VuKxH_AuY5O1re8w1-19" value="&lt;font style=&quot;font-size: 16px&quot;&gt;3&lt;/font&gt;" style="text;html=1;align=center;verticalAlign=middle;resizable=0;points=[];autosize=1;strokeColor=none;fillColor=none;fontSize=13;fontColor=#000000;fontStyle=1" parent="i18VuKxH_AuY5O1re8w1-16" vertex="1">
                    &#xa;                    &#xa;&#xa;
                    <mxGeometry x="10" y="10" width="20" height="20" as="geometry"/>
                    &#xa;                    &#xa;&#xa;
                </mxCell>
                &#xa;                &#xa;&#xa;
                <mxCell id="i18VuKxH_AuY5O1re8w1-20" value="&lt;span style=&quot;font-family: helvetica; font-size: 16px; font-style: normal; font-weight: 400; letter-spacing: normal; text-indent: 0px; text-transform: none; word-spacing: 0px; display: inline; float: none;&quot;&gt;Waste Collection&lt;/span&gt;" style="text;whiteSpace=wrap;html=1;fontSize=17;fontFamily=Verdana;align=center;labelBackgroundColor=none;fillColor=#fff2cc;strokeColor=#d6b656;fontColor=#000000;" parent="1" vertex="1">
                    &#xa;                    &#xa;&#xa;
                    <mxGeometry x="600" y="401" width="130" height="30" as="geometry"/>
                    &#xa;                    &#xa;&#xa;
                </mxCell>
                &#xa;                &#xa;&#xa;
                <mxCell id="i18VuKxH_AuY5O1re8w1-21" value="" style="endArrow=classic;html=1;rounded=0;fontSize=16;fontColor=#000000;fillColor=#ffe6cc;strokeColor=#FFCE9F;strokeWidth=6;" parent="1" edge="1">
                    &#xa;                    &#xa;&#xa;
                    <mxGeometry width="50" height="50" relative="1" as="geometry">
                        &#xa;                        &#xa;&#xa;
                        <mxPoint x="1030" y="450" as="sourcePoint"/>
                        &#xa;                        &#xa;&#xa;
                        <mxPoint x="760" y="570" as="targetPoint"/>
                        &#xa;                        &#xa;&#xa;
                        <Array as="points"/>
                        &#xa;                        &#xa;&#xa;
                    </mxGeometry>
                    &#xa;                    &#xa;&#xa;
                </mxCell>
                &#xa;                &#xa;&#xa;
                <mxCell id="i18VuKxH_AuY5O1re8w1-24" value="" style="group" parent="1" vertex="1" connectable="0">
                    &#xa;                    &#xa;&#xa;
                    <mxGeometry x="870" y="460" width="40" height="40" as="geometry"/>
                    &#xa;                    &#xa;&#xa;
                </mxCell>
                &#xa;                &#xa;&#xa;
                <mxCell id="i18VuKxH_AuY5O1re8w1-25" value="" style="ellipse;whiteSpace=wrap;html=1;aspect=fixed;fillColor=#FFB570;strokeColor=none;" parent="i18VuKxH_AuY5O1re8w1-24" vertex="1">
                    &#xa;                    &#xa;&#xa;
                    <mxGeometry width="40" height="40" as="geometry"/>
                    &#xa;                    &#xa;&#xa;
                </mxCell>
                &#xa;                &#xa;&#xa;
                <mxCell id="i18VuKxH_AuY5O1re8w1-26" value="" style="rounded=0;whiteSpace=wrap;html=1;fontColor=#007FFF;fillColor=#FFB570;strokeColor=none;" parent="i18VuKxH_AuY5O1re8w1-24" vertex="1">
                    &#xa;                    &#xa;&#xa;
                    <mxGeometry x="14.5" y="0.5" width="25" height="25.5" as="geometry"/>
                    &#xa;                    &#xa;&#xa;
                </mxCell>
                &#xa;                &#xa;&#xa;
                <mxCell id="i18VuKxH_AuY5O1re8w1-27" value="&lt;font style=&quot;font-size: 16px&quot;&gt;4&lt;/font&gt;" style="text;html=1;align=center;verticalAlign=middle;resizable=0;points=[];autosize=1;strokeColor=none;fillColor=none;fontSize=13;fontColor=#000000;fontStyle=1" parent="i18VuKxH_AuY5O1re8w1-24" vertex="1">
                    &#xa;                    &#xa;&#xa;
                    <mxGeometry x="10" y="10" width="20" height="20" as="geometry"/>
                    &#xa;                    &#xa;&#xa;
                </mxCell>
                &#xa;                &#xa;&#xa;
                <mxCell id="i18VuKxH_AuY5O1re8w1-28" value="&lt;span style=&quot;font-family: &amp;quot;helvetica&amp;quot; ; font-size: 16px ; font-style: normal ; font-weight: 400 ; letter-spacing: normal ; text-indent: 0px ; text-transform: none ; word-spacing: 0px ; display: inline ; float: none&quot;&gt;Resale&lt;/span&gt;" style="text;whiteSpace=wrap;html=1;fontSize=17;fontFamily=Verdana;align=center;labelBackgroundColor=none;fillColor=#fff2cc;strokeColor=#d6b656;fontColor=#000000;rotation=-25;" parent="1" vertex="1">
                    &#xa;                    &#xa;&#xa;
                    <mxGeometry x="885" y="520" width="80" height="30" as="geometry"/>
                    &#xa;                    &#xa;&#xa;
                </mxCell>
                &#xa;                &#xa;&#xa;
                <mxCell id="i18VuKxH_AuY5O1re8w1-30" value="" style="endArrow=classic;html=1;rounded=0;fontSize=16;fontColor=#000000;fillColor=#ffe6cc;strokeColor=#FFCE9F;strokeWidth=6;" parent="1" edge="1">
                    &#xa;                    &#xa;&#xa;
                    <mxGeometry width="50" height="50" relative="1" as="geometry">
                        &#xa;                        &#xa;&#xa;
                        <mxPoint x="580" y="570" as="sourcePoint"/>
                        &#xa;                        &#xa;&#xa;
                        <mxPoint x="310" y="430" as="targetPoint"/>
                        &#xa;                        &#xa;&#xa;
                    </mxGeometry>
                    &#xa;                    &#xa;&#xa;
                </mxCell>
                &#xa;                &#xa;&#xa;
                <mxCell id="i18VuKxH_AuY5O1re8w1-90" value="" style="shape=image;html=1;verticalAlign=top;verticalLabelPosition=bottom;labelBackgroundColor=#ffffff;imageAspect=0;aspect=fixed;image=https://cdn2.iconfinder.com/data/icons/nasty/60/trash_waste-128.png" parent="1" vertex="1">
                    &#xa;                    &#xa;&#xa;
                    <mxGeometry x="511.5" y="343" width="77" height="77" as="geometry"/>
                    &#xa;                    &#xa;&#xa;
                </mxCell>
                &#xa;                &#xa;&#xa;
                <mxCell id="i18VuKxH_AuY5O1re8w1-91" value="" style="shape=image;html=1;verticalAlign=top;verticalLabelPosition=bottom;labelBackgroundColor=#ffffff;imageAspect=0;aspect=fixed;image=https://cdn0.iconfinder.com/data/icons/green-world-colored/80/recycling-recycle-bin-sorting-waste-128.png" parent="1" vertex="1">
                    &#xa;                    &#xa;&#xa;
                    <mxGeometry x="1090" y="349" width="76" height="76" as="geometry"/>
                    &#xa;                    &#xa;&#xa;
                </mxCell>
                &#xa;                &#xa;&#xa;
                <mxCell id="i18VuKxH_AuY5O1re8w1-92" value="" style="shape=image;html=1;verticalAlign=top;verticalLabelPosition=bottom;labelBackgroundColor=#ffffff;imageAspect=0;aspect=fixed;image=https://cdn4.iconfinder.com/data/icons/dot/128/trash_recycle_bin_garbage.png" parent="1" vertex="1">
                    &#xa;                    &#xa;&#xa;
                    <mxGeometry x="230" y="327" width="97" height="97" as="geometry"/>
                    &#xa;                    &#xa;&#xa;
                </mxCell>
                &#xa;                &#xa;&#xa;
                <mxCell id="i18VuKxH_AuY5O1re8w1-94" value="" style="shape=mxgraph.signs.transportation.truck_1;html=1;pointerEvents=1;fillColor=#000000;strokeColor=none;verticalLabelPosition=bottom;verticalAlign=top;align=center;" parent="1" vertex="1">
                    &#xa;                    &#xa;&#xa;
                    <mxGeometry x="769" y="356" width="99" height="51" as="geometry"/>
                    &#xa;                    &#xa;&#xa;
                </mxCell>
                &#xa;                &#xa;&#xa;
                <mxCell id="i18VuKxH_AuY5O1re8w1-96" value="" style="shape=image;html=1;verticalAlign=top;verticalLabelPosition=bottom;labelBackgroundColor=#ffffff;imageAspect=0;aspect=fixed;image=https://cdn1.iconfinder.com/data/icons/2-building-line-filled/614/Factory-128.png" parent="1" vertex="1">
                    &#xa;                    &#xa;&#xa;
                    <mxGeometry x="1000" y="334" width="106" height="106" as="geometry"/>
                    &#xa;                    &#xa;&#xa;
                </mxCell>
                &#xa;                &#xa;&#xa;
                <mxCell id="_fpHfF0BCEnWqZY7Fqpk-1" value="Waste Plant" style="text;html=1;strokeColor=#d79b00;fillColor=#ffe6cc;align=center;verticalAlign=middle;whiteSpace=wrap;rounded=1;fontSize=16;perimeterSpacing=0;fontStyle=0" parent="1" vertex="1">
                    &#xa;                    &#xa;&#xa;
                    <mxGeometry x="1000" y="304" width="150" height="30" as="geometry"/>
                    &#xa;                    &#xa;&#xa;
                </mxCell>
                &#xa;                &#xa;&#xa;
                <mxCell id="Dk4Gvk7Kl1FsX2WLq3TU-3" value="" style="shape=image;html=1;verticalAlign=top;verticalLabelPosition=bottom;labelBackgroundColor=#ffffff;imageAspect=0;aspect=fixed;image=https://cdn2.iconfinder.com/data/icons/business-and-economy/256/business_economic_finance_interprise_company_get_money-128.png" parent="1" vertex="1">
                    &#xa;                    &#xa;&#xa;
                    <mxGeometry x="621" y="520" width="88" height="88" as="geometry"/>
                    &#xa;                    &#xa;&#xa;
                </mxCell>
                &#xa;                &#xa;&#xa;
            </root>
            &#xa;            &#xa;&#xa;
        </mxGraphModel>
        &#xa;        &#xa;&#xa;
    </diagram>
    <diagram id="pprsXr1tLJl4cKvxkqmz" name="smart_city_top_use_cases.png">
        &#xa;        &#xa;&#xa;
        <mxGraphModel dx="1031" dy="-1722" grid="1" gridSize="10" guides="1" tooltips="1" connect="1" arrows="1" fold="1" page="1" pageScale="1" pageWidth="827" pageHeight="1169" math="0" shadow="0">
            &#xa;            &#xa;&#xa;
            <root>
                &#xa;                &#xa;&#xa;
                <mxCell id="0"/>
                &#xa;                &#xa;&#xa;
                <mxCell id="1" parent="0"/>
                &#xa;                &#xa;&#xa;
                <mxCell id="H0HhSxhW3A72KgAXJZyH-15" value="" style="group;aspect=fixed;" vertex="1" connectable="0" parent="1">
                    &#xa;                    &#xa;&#xa;
                    <mxGeometry x="230" y="2360" width="390" height="390" as="geometry"/>
                    &#xa;                    &#xa;&#xa;
                </mxCell>
                &#xa;                &#xa;&#xa;
                <mxCell id="H0HhSxhW3A72KgAXJZyH-1" value="&lt;span style=&quot;font-size: 30px;&quot;&gt;&lt;b style=&quot;font-size: 21px;&quot;&gt;&lt;font style=&quot;font-size: 21px;&quot; color=&quot;#1a1a1a&quot;&gt;SMART&lt;br&gt;CITY&lt;/font&gt;&lt;br&gt;&lt;/b&gt;&lt;/span&gt;" style="shape=hexagon;perimeter=hexagonPerimeter2;whiteSpace=wrap;html=1;shadow=0;labelBackgroundColor=none;strokeColor=#666666;fillColor=#f5f5f5;fontFamily=Helvetica;fontSize=23;fontColor=#333333;align=center;strokeWidth=3;" vertex="1" parent="H0HhSxhW3A72KgAXJZyH-15">
                    &#xa;                    &#xa;&#xa;
                    <mxGeometry x="117.03947368421058" y="130.06578947368402" width="155.9210526315789" height="129.93421052631587" as="geometry"/>
                    &#xa;                    &#xa;&#xa;
                </mxCell>
                &#xa;                &#xa;&#xa;
                <mxCell id="H0HhSxhW3A72KgAXJZyH-2" value="" style="triangle;whiteSpace=wrap;html=1;shadow=0;labelBackgroundColor=none;strokeColor=none;fillColor=#FFFFFF;fontFamily=Helvetica;fontSize=17;fontColor=#23445d;align=center;rotation=90;gradientColor=none;flipV=1;flipH=1;opacity=20;" vertex="1" parent="H0HhSxhW3A72KgAXJZyH-15">
                    &#xa;                    &#xa;&#xa;
                    <mxGeometry x="57.49999999999999" y="139.00000000000009" width="35.99999999999999" height="76.00000000000004" as="geometry"/>
                    &#xa;                    &#xa;&#xa;
                </mxCell>
                &#xa;                &#xa;&#xa;
                <mxCell id="H0HhSxhW3A72KgAXJZyH-3" value="&lt;font style=&quot;font-size: 18px;&quot;&gt;Public&lt;br&gt;Safety&lt;br&gt;&lt;/font&gt;" style="shape=hexagon;perimeter=hexagonPerimeter2;whiteSpace=wrap;html=1;shadow=0;labelBackgroundColor=none;strokeColor=#d6b656;fillColor=#fff2cc;fontFamily=Helvetica;fontSize=23;align=center;strokeWidth=3;" vertex="1" parent="H0HhSxhW3A72KgAXJZyH-15">
                    &#xa;                    &#xa;&#xa;
                    <mxGeometry x="117.03947368421058" width="155.9210526315789" height="129.93421052631587" as="geometry"/>
                    &#xa;                    &#xa;&#xa;
                </mxCell>
                &#xa;                &#xa;&#xa;
                <mxCell id="H0HhSxhW3A72KgAXJZyH-4" value="&lt;font style=&quot;font-size: 18px;&quot;&gt;Waste&lt;br&gt;Management&lt;/font&gt;" style="shape=hexagon;perimeter=hexagonPerimeter2;whiteSpace=wrap;html=1;shadow=0;labelBackgroundColor=none;strokeColor=#B85450;fillColor=#f8cecc;fontFamily=Helvetica;fontSize=23;align=center;strokeWidth=3;" vertex="1" parent="H0HhSxhW3A72KgAXJZyH-15">
                    &#xa;                    &#xa;&#xa;
                    <mxGeometry x="234.07894736842107" y="64.76644736842108" width="155.9210526315789" height="129.93421052631587" as="geometry"/>
                    &#xa;                    &#xa;&#xa;
                </mxCell>
                &#xa;                &#xa;&#xa;
                <mxCell id="H0HhSxhW3A72KgAXJZyH-5" value="&lt;font style=&quot;font-size: 18px;&quot;&gt;Smart&lt;br&gt;Parking&lt;br&gt;&lt;/font&gt;" style="shape=hexagon;perimeter=hexagonPerimeter2;whiteSpace=wrap;html=1;shadow=0;labelBackgroundColor=none;strokeColor=#9673a6;fillColor=#e1d5e7;fontFamily=Helvetica;fontSize=23;align=center;strokeWidth=3;" vertex="1" parent="H0HhSxhW3A72KgAXJZyH-15">
                    &#xa;                    &#xa;&#xa;
                    <mxGeometry x="234.07894736842107" y="194.79934210526324" width="155.9210526315789" height="129.93421052631587" as="geometry"/>
                    &#xa;                    &#xa;&#xa;
                </mxCell>
                &#xa;                &#xa;&#xa;
                <mxCell id="H0HhSxhW3A72KgAXJZyH-6" value="&lt;font style=&quot;font-size: 18px;&quot;&gt;Street&lt;br&gt;Lightning&lt;br&gt;&lt;/font&gt;" style="shape=hexagon;perimeter=hexagonPerimeter2;whiteSpace=wrap;html=1;shadow=0;labelBackgroundColor=none;strokeColor=#82b366;fillColor=#d5e8d4;fontFamily=Helvetica;fontSize=23;align=center;strokeWidth=3;" vertex="1" parent="H0HhSxhW3A72KgAXJZyH-15">
                    &#xa;                    &#xa;&#xa;
                    <mxGeometry x="117.03947368421058" y="260.0657894736841" width="155.9210526315789" height="129.93421052631587" as="geometry"/>
                    &#xa;                    &#xa;&#xa;
                </mxCell>
                &#xa;                &#xa;&#xa;
                <mxCell id="H0HhSxhW3A72KgAXJZyH-7" value="&lt;font style=&quot;font-size: 18px;&quot;&gt;Public&lt;br&gt;Transport&lt;br&gt;&lt;/font&gt;" style="shape=hexagon;perimeter=hexagonPerimeter2;whiteSpace=wrap;html=1;shadow=0;labelBackgroundColor=none;strokeColor=#6c8ebf;fillColor=#dae8fc;fontFamily=Helvetica;fontSize=23;align=center;strokeWidth=3;" vertex="1" parent="H0HhSxhW3A72KgAXJZyH-15">
                    &#xa;                    &#xa;&#xa;
                    <mxGeometry y="194.79934210526324" width="155.9210526315789" height="129.93421052631587" as="geometry"/>
                    &#xa;                    &#xa;&#xa;
                </mxCell>
                &#xa;                &#xa;&#xa;
                <mxCell id="H0HhSxhW3A72KgAXJZyH-8" value="&lt;font style=&quot;font-size: 18px;&quot;&gt;Road&lt;br&gt;Traffic&lt;br&gt;&lt;/font&gt;" style="shape=hexagon;perimeter=hexagonPerimeter2;whiteSpace=wrap;html=1;shadow=0;labelBackgroundColor=none;strokeColor=#D79B00;fillColor=#ffe6cc;fontFamily=Helvetica;fontSize=23;align=center;strokeWidth=3;" vertex="1" parent="H0HhSxhW3A72KgAXJZyH-15">
                    &#xa;                    &#xa;&#xa;
                    <mxGeometry x="5.684341886080802e-14" y="64.76644736842108" width="155.9210526315789" height="129.93421052631587" as="geometry"/>
                    &#xa;                    &#xa;&#xa;
                </mxCell>
                &#xa;                &#xa;&#xa;
                <mxCell id="H0HhSxhW3A72KgAXJZyH-9" value="" style="triangle;whiteSpace=wrap;html=1;shadow=0;labelBackgroundColor=none;strokeColor=none;fillColor=#B85450;fontFamily=Helvetica;fontSize=17;fontColor=#23445d;align=center;rotation=31;gradientColor=none;strokeWidth=3;" vertex="1" parent="H0HhSxhW3A72KgAXJZyH-15">
                    &#xa;                    &#xa;&#xa;
                    <mxGeometry x="252.75000000000003" y="82.00000000000004" width="17.499999999999996" height="36.50000000000002" as="geometry"/>
                    &#xa;                    &#xa;&#xa;
                </mxCell>
                &#xa;                &#xa;&#xa;
                <mxCell id="H0HhSxhW3A72KgAXJZyH-10" value="" style="triangle;whiteSpace=wrap;html=1;shadow=0;labelBackgroundColor=none;strokeColor=none;fillColor=#6C8EBF;fontFamily=Helvetica;fontSize=17;fontColor=#23445d;align=center;rotation=31;gradientColor=none;flipH=1;strokeWidth=3;" vertex="1" parent="H0HhSxhW3A72KgAXJZyH-15">
                    &#xa;                    &#xa;&#xa;
                    <mxGeometry x="119.99999999999997" y="269.99999999999994" width="17.499999999999996" height="36.50000000000002" as="geometry"/>
                    &#xa;                    &#xa;&#xa;
                </mxCell>
                &#xa;                &#xa;&#xa;
                <mxCell id="H0HhSxhW3A72KgAXJZyH-11" value="" style="triangle;whiteSpace=wrap;html=1;shadow=0;labelBackgroundColor=none;strokeColor=#d6b656;fillColor=#D6B656;fontFamily=Helvetica;fontSize=17;align=center;rotation=329;strokeWidth=3;" vertex="1" parent="H0HhSxhW3A72KgAXJZyH-15">
                    &#xa;                    &#xa;&#xa;
                    <mxGeometry x="134.99999999999997" y="74.50000000000004" width="17.499999999999996" height="36.50000000000002" as="geometry"/>
                    &#xa;                    &#xa;&#xa;
                </mxCell>
                &#xa;                &#xa;&#xa;
                <mxCell id="H0HhSxhW3A72KgAXJZyH-12" value="" style="triangle;whiteSpace=wrap;html=1;shadow=0;labelBackgroundColor=none;strokeColor=none;fillColor=#82B366;fontFamily=Helvetica;fontSize=17;fontColor=#23445d;align=center;rotation=329;gradientColor=none;flipH=1;strokeWidth=3;" vertex="1" parent="H0HhSxhW3A72KgAXJZyH-15">
                    &#xa;                    &#xa;&#xa;
                    <mxGeometry x="236.5" y="277.4999999999999" width="17.499999999999996" height="36.50000000000002" as="geometry"/>
                    &#xa;                    &#xa;&#xa;
                </mxCell>
                &#xa;                &#xa;&#xa;
                <mxCell id="H0HhSxhW3A72KgAXJZyH-13" value="" style="triangle;whiteSpace=wrap;html=1;shadow=0;labelBackgroundColor=none;strokeColor=none;fillColor=#9673A6;fontFamily=Helvetica;fontSize=17;fontColor=#23445d;align=center;rotation=90;gradientColor=none;strokeWidth=3;" vertex="1" parent="H0HhSxhW3A72KgAXJZyH-15">
                    &#xa;                    &#xa;&#xa;
                    <mxGeometry x="303.28947368421046" y="184.75000000000006" width="17.499999999999996" height="36.50000000000002" as="geometry"/>
                    &#xa;                    &#xa;&#xa;
                </mxCell>
                &#xa;                &#xa;&#xa;
                <mxCell id="H0HhSxhW3A72KgAXJZyH-14" value="" style="triangle;whiteSpace=wrap;html=1;shadow=0;labelBackgroundColor=none;strokeColor=none;fillColor=#D79B00;fontFamily=Helvetica;fontSize=17;fontColor=#23445d;align=center;rotation=90;gradientColor=none;flipH=1;strokeWidth=3;" vertex="1" parent="H0HhSxhW3A72KgAXJZyH-15">
                    &#xa;                    &#xa;&#xa;
                    <mxGeometry x="69.21052631578948" y="167.75000000000009" width="17.499999999999996" height="36.50000000000002" as="geometry"/>
                    &#xa;                    &#xa;&#xa;
                </mxCell>
                &#xa;                &#xa;&#xa;
            </root>
            &#xa;            &#xa;&#xa;
        </mxGraphModel>
        &#xa;        &#xa;&#xa;
    </diagram>
</mxfile>